<svg xmlns="http://www.w3.org/2000/svg" viewBox="0 0 323.67 131.99"><title>dhaulagiri-altitude-profile01</title><polygon points="17.41 56.59 37.3 52.76 57.18 46.64 77.83 47.41 97.71 45.11 117.6 38.22 138.25 32.1 158.13 26.74 178.01 23.68 198.66 15.26 218.54 8.37 238.43 10.67 259.08 9.14 278.96 0.72 298.85 18.32 319.49 36.69 319.49 65.78 298.85 65.78 278.96 65.78 259.08 65.78 238.43 65.78 218.54 65.78 198.66 65.78 178.01 65.78 158.13 65.78 138.25 65.78 117.6 65.78 97.71 65.78 77.83 65.78 57.18 65.78 37.3 65.78 17.41 65.78 17.41 56.59 17.41 56.59" style="fill:#5b9bd5"/><text transform="translate(14.92 75.27)" style="font-size:4px;fill:#595959;font-family:ArialMT, Arial">1</text><text transform="translate(35.05 75.27)" style="font-size:4px;fill:#595959;font-family:ArialMT, Arial">2</text><text transform="translate(55.19 75.27)" style="font-size:4px;fill:#595959;font-family:ArialMT, Arial">3</text><text transform="translate(75.32 75.27)" style="font-size:4px;fill:#595959;font-family:ArialMT, Arial">4</text><text transform="translate(95.45 75.27)" style="font-size:4px;fill:#595959;font-family:ArialMT, Arial">5</text><text transform="translate(115.58 75.27)" style="font-size:4px;fill:#595959;font-family:ArialMT, Arial">6</text><text transform="translate(135.72 75.27)" style="font-size:4px;fill:#595959;font-family:ArialMT, Arial">7</text><text transform="translate(155.85 75.27)" style="font-size:4px;fill:#595959;font-family:ArialMT, Arial">8</text><text transform="translate(175.99 75.27)" style="font-size:4px;fill:#595959;font-family:ArialMT, Arial">9</text><text transform="translate(193.79 75.27)" style="font-size:4px;fill:#595959;font-family:ArialMT, Arial"><tspan style="letter-spacing:-0.005863899829816627em">1</tspan><tspan x="2.2" y="0">0</tspan></text><text transform="translate(213.93 75.27)" style="font-size:4px;fill:#595959;font-family:ArialMT, Arial"><tspan style="letter-spacing:-0.005863899829816627em">1</tspan><tspan x="2.2" y="0">1</tspan></text><text transform="translate(234.06 75.27)" style="font-size:4px;fill:#595959;font-family:ArialMT, Arial"><tspan style="letter-spacing:-0.005863899829816627em">1</tspan><tspan x="2.2" y="0">2</tspan></text><text transform="translate(254.19 75.27)" style="font-size:4px;fill:#595959;font-family:ArialMT, Arial"><tspan style="letter-spacing:-0.005863899829816627em">1</tspan><tspan x="2.2" y="0">3</tspan></text><text transform="translate(274.33 75.27)" style="font-size:4px;fill:#595959;font-family:ArialMT, Arial"><tspan style="letter-spacing:-0.005863899829816627em">1</tspan><tspan x="2.2" y="0">4</tspan></text><text transform="translate(294.46 75.27)" style="font-size:4px;fill:#595959;font-family:ArialMT, Arial"><tspan style="letter-spacing:-0.005863899829816627em">1</tspan><tspan x="2.2" y="0">5</tspan></text><text transform="translate(314.59 75.27)" style="font-size:4px;fill:#595959;font-family:ArialMT, Arial"><tspan style="letter-spacing:-0.005863899829816627em">1</tspan><tspan x="2.2" y="0">6</tspan></text><text transform="translate(7.07 57.27)" style="font-size:4px;fill:#595959;font-family:ArialMT, Arial;letter-spacing:-0.005986064409604475em">100<tspan x="6.6" y="0" style="letter-spacing:0.0001221645797878464em">0</tspan></text><text transform="translate(7.07 46.51)" style="font-size:4px;fill:#595959;font-family:ArialMT, Arial;letter-spacing:-0.005986064409604475em">200<tspan x="6.6" y="0" style="letter-spacing:0.0001221645797878464em">0</tspan></text><text transform="translate(7.07 35.74)" style="font-size:4px;fill:#595959;font-family:ArialMT, Arial;letter-spacing:-0.005986064409604475em">300<tspan x="6.6" y="0" style="letter-spacing:0.0001221645797878464em">0</tspan></text><text transform="translate(7.07 24.97)" style="font-size:4px;fill:#595959;font-family:ArialMT, Arial;letter-spacing:-0.005986064409604475em">400<tspan x="6.6" y="0" style="letter-spacing:0.0001221645797878464em">0</tspan></text><text transform="translate(7.07 14.2)" style="font-size:4px;fill:#595959;font-family:ArialMT, Arial;letter-spacing:-0.005986064409604475em">500<tspan x="6.6" y="0" style="letter-spacing:0.0001221645797878464em">0</tspan></text><text transform="translate(7.07 3.43)" style="font-size:4px;fill:#595959;font-family:ArialMT, Arial;letter-spacing:-0.005986064409604475em">600<tspan x="6.6" y="0" style="letter-spacing:0.0001221645797878464em">0</tspan></text><text transform="matrix(0, -1, 1, 0, 20.06, 99.18)" style="font-size:5px;fill:#595959;font-family:ArialMT, Arial"><tspan style="letter-spacing:-0.03708073985186095em">Б</tspan><tspan x="3.1" y="0" style="letter-spacing:0.0848953780818922em">е</tspan><tspan x="6.3" y="0" style="letter-spacing:-0.033958151232756875em">н</tspan><tspan x="8.89" y="0">и</tspan></text><text transform="matrix(0, -1, 1, 0, 40.19, 100.44)" style="font-size:5px;fill:#595959;font-family:ArialMT, Arial"><tspan style="letter-spacing:-0.02088231139025854em">М</tspan><tspan x="4.06" y="0" style="letter-spacing:-0.035129121964920906em">у</tspan><tspan x="6.38" y="0" style="letter-spacing:0.05698724229864947em">р</tspan><tspan x="9.45" y="0">и</tspan></text><text transform="matrix(0, -1, 1, 0, 60.32, 100.03)" style="font-size:5px;fill:#595959;font-family:ArialMT, Arial"><tspan style="letter-spacing:-0.02088231139025854em">М</tspan><tspan x="4.06" y="0" style="letter-spacing:-0.035129121964920906em">у</tspan><tspan x="6.38" y="0" style="letter-spacing:-0.033958151232756875em">н</tspan><tspan x="8.98" y="0">и</tspan></text><text transform="matrix(0, -1, 1, 0, 80.46, 112.53)" style="font-size:5px;fill:#595959;font-family:ArialMT, Arial"><tspan style="letter-spacing:0.02205328212242257em">Д</tspan><tspan x="3.5" y="0" style="letter-spacing:-0.02205328212242257em">ж</tspan><tspan x="6.73" y="0" style="letter-spacing:-0.035129121964920906em">у</tspan><tspan x="9.06" y="0" style="letter-spacing:-0.011904869110334306em">г</tspan><tspan x="10.82" y="0" style="letter-spacing:0.10382607158521068em">а</tspan><tspan x="14.12" y="0" style="letter-spacing:-0.019906502446788515em">п</tspan><tspan x="16.73" y="0" style="letter-spacing:0.10382607158521068em">а</tspan><tspan x="20.03" y="0" style="letter-spacing:-0.033958151232756875em">н</tspan><tspan x="22.62" y="0">и</tspan></text><text transform="matrix(0, -1, 1, 0, 100.59, 108.62)" style="font-size:5px;fill:#595959;font-family:ArialMT, Arial"><tspan style="letter-spacing:0.026932326839772695em">Ч</tspan><tspan x="3.47" y="0" style="letter-spacing:0.0850905398705862em">е</tspan><tspan x="6.67" y="0" style="letter-spacing:0.028883944726712744em">т</tspan><tspan x="9.11" y="0" style="letter-spacing:0.10402123337390469em">а</tspan><tspan x="12.41" y="0" style="letter-spacing:-0.025175870741526652em">р</tspan><tspan x="15.06" y="0" style="letter-spacing:0.019906502446788515em">а</tspan><tspan x="17.95" y="0" style="letter-spacing:-0.033958151232756875em">н</tspan><tspan x="20.54" y="0">г</tspan></text><text transform="matrix(0, -1, 1, 0, 120.72, 104.46)" style="font-size:5px;fill:#595959;font-family:ArialMT, Arial"><tspan style="letter-spacing:0.02205328212242257em">Д</tspan><tspan x="3.5" y="0" style="letter-spacing:0.05484046262301542em">о</tspan><tspan x="6.55" y="0" style="letter-spacing:-0.03200653334581683em">б</tspan><tspan x="9.26" y="0" style="letter-spacing:0.10402123337390469em">а</tspan><tspan x="12.56" y="0" style="letter-spacing:-0.03415331302145089em">н</tspan><tspan x="15.15" y="0">г</tspan></text><text transform="matrix(0, -1, 1, 0, 140.86, 109.19)" style="font-size:5px;fill:#595959;font-family:ArialMT, Arial;letter-spacing:-0.032982342289286856em">С<tspan x="3.45" y="0" style="letter-spacing:0.10402123337390469em">а</tspan><tspan x="6.75" y="0" style="letter-spacing:-0.010148413012088263em">л</tspan><tspan x="9.61" y="0" style="letter-spacing:0.10402123337390469em">а</tspan><tspan x="12.91" y="0" style="letter-spacing:-0.012100030899028311em">г</tspan><tspan x="14.68" y="0" style="letter-spacing:-0.03981300489357703em">и</tspan><tspan x="17.27" y="0" style="letter-spacing:0.05679208050995547em">р</tspan><tspan x="20.34" y="0" style="letter-spacing:0.00019516178869400505em">и</tspan></text><text transform="matrix(0, -1, 1, 0, 160.99, 131.99)" style="font-size:5px;fill:#595959;font-family:ArialMT, Arial"><tspan style="letter-spacing:0.024980708952832647em">И</tspan><tspan x="3.72" y="0" style="letter-spacing:0.028883944726712744em">т</tspan><tspan x="6.15" y="0" style="letter-spacing:0.10402123337390469em">а</tspan><tspan x="9.45" y="0" style="letter-spacing:-0.010148413012088263em">л</tspan><tspan x="12.32" y="0" style="letter-spacing:0.03005491545887678em">ь</tspan><tspan x="15.08" y="0" style="letter-spacing:0.02478554716413864em">я</tspan><tspan x="17.91" y="0" style="letter-spacing:-0.033958151232756875em">н</tspan><tspan x="20.5" y="0" style="letter-spacing:-0.006050015449514156em">с</tspan><tspan x="22.97" y="0" style="letter-spacing:0.03590976911969693em">к</tspan><tspan x="25.34" y="0" style="letter-spacing:-0.03981300489357703em">ий</tspan><tspan x="30.52" y="0" style="letter-spacing:-0.05913402197428353em"> </tspan><tspan x="31.62" y="0" style="letter-spacing:-0.03200653334581683em">б</tspan><tspan x="34.32" y="0" style="letter-spacing:0.10382607158521068em">а</tspan><tspan x="37.62" y="0" style="letter-spacing:-0.0058548536608201505em">з</tspan><tspan x="39.89" y="0" style="letter-spacing:-0.009953251223394258em">л</tspan><tspan x="42.75" y="0" style="letter-spacing:0.10382607158521068em">а</tspan><tspan x="46.05" y="0">г</tspan></text><text transform="matrix(0, -1, 1, 0, 181.12, 124.9)" style="font-size:5px;fill:#595959;font-family:ArialMT, Arial"><tspan style="letter-spacing:0.028103297571936726em">Я</tspan><tspan x="3.75" y="0" style="letter-spacing:-0.02010166423548252em">п</tspan><tspan x="6.36" y="0" style="letter-spacing:0.05484046262301542em">о</tspan><tspan x="9.41" y="0" style="letter-spacing:-0.033958151232756875em">н</tspan><tspan x="12.01" y="0" style="letter-spacing:-0.006050015449514156em">с</tspan><tspan x="14.48" y="0" style="letter-spacing:0.03590976911969693em">к</tspan><tspan x="16.84" y="0" style="letter-spacing:-0.03981300489357703em">ий</tspan><tspan x="22.03" y="0" style="letter-spacing:0.02283392927719859em"> </tspan><tspan x="23.53" y="0" style="letter-spacing:-0.03200653334581683em">б</tspan><tspan x="26.24" y="0" style="letter-spacing:0.10402123337390469em">а</tspan><tspan x="29.54" y="0" style="letter-spacing:-0.006050015449514156em">з</tspan><tspan x="31.8" y="0" style="letter-spacing:-0.009953251223394258em">л</tspan><tspan x="34.67" y="0" style="letter-spacing:0.10382607158521068em">а</tspan><tspan x="37.97" y="0">г</tspan></text><text transform="matrix(0, -1, 1, 0, 201.25, 129.63)" style="font-size:5px;fill:#595959;font-family:ArialMT, Arial;letter-spacing:-0.03200653334581683em">б<tspan x="2.7" y="0" style="letter-spacing:0.10382607158521068em">а</tspan><tspan x="6" y="0" style="letter-spacing:-0.0058548536608201505em">з</tspan><tspan x="8.27" y="0" style="letter-spacing:-0.010148413012088263em">л</tspan><tspan x="11.13" y="0" style="letter-spacing:0.10402123337390469em">а</tspan><tspan x="14.44" y="0" style="letter-spacing:-0.011904869110334306em">г</tspan><tspan x="16.2" y="0" style="letter-spacing:-0.05913402197428353em"> </tspan><tspan x="17.29" y="0" style="letter-spacing:0.02205328212242257em">Д</tspan><tspan x="20.79" y="0" style="letter-spacing:-0.016003266672908415em">х</tspan><tspan x="23.21" y="0" style="letter-spacing:0.10382607158521068em">а</tspan><tspan x="26.51" y="0" style="letter-spacing:-0.0349339601762269em">у</tspan><tspan x="28.84" y="0" style="letter-spacing:-0.010148413012088263em">л</tspan><tspan x="31.7" y="0" style="letter-spacing:0.10402123337390469em">а</tspan><tspan x="35" y="0" style="letter-spacing:-0.012100030899028311em">г</tspan><tspan x="36.77" y="0" style="letter-spacing:-0.03981300489357703em">и</tspan><tspan x="39.36" y="0" style="letter-spacing:0.05679208050995547em">р</tspan><tspan x="42.43" y="0" style="letter-spacing:0.00019516178869400505em">и</tspan></text><text transform="matrix(0, -1, 1, 0, 221.39, 118.05)" style="font-size:5px;fill:#595959;font-family:ArialMT, Arial"><tspan style="letter-spacing:-0.03005491545887678em">Ф</tspan><tspan x="3.65" y="0" style="letter-spacing:0.05698724229864947em">р</tspan><tspan x="6.72" y="0" style="letter-spacing:0.10382607158521068em">а</tspan><tspan x="10.02" y="0" style="letter-spacing:-0.033958151232756875em">н</tspan><tspan x="12.61" y="0" style="letter-spacing:0.04078881383704705em">ц</tspan><tspan x="15.68" y="0" style="letter-spacing:-0.0349339601762269em">у</tspan><tspan x="18" y="0" style="letter-spacing:-0.0058548536608201505em">зс</tspan><tspan x="22.74" y="0" style="letter-spacing:0.03590976911969693em">к</tspan><tspan x="25.1" y="0" style="letter-spacing:-0.04000816668227103em">ий</tspan><tspan x="30.29" y="0"> </tspan></text><text transform="matrix(0, -1, 1, 0, 241.52, 124.3)" style="font-size:5px;fill:#595959;font-family:ArialMT, Arial"><tspan style="letter-spacing:-0.032982342289286856em">С</tspan><tspan x="3.45" y="0" style="letter-spacing:0.03590976911969693em">к</tspan><tspan x="5.81" y="0" style="letter-spacing:0.05698724229864947em">р</tspan><tspan x="8.88" y="0">ы</tspan><tspan x="12.47" y="0" style="letter-spacing:0.028883944726712744em">т</tspan><tspan x="14.91" y="0" style="letter-spacing:0.10402123337390469em">а</tspan><tspan x="18.21" y="0" style="letter-spacing:0.024980708952832647em">я</tspan><tspan x="21.04" y="0" style="letter-spacing:-0.05913402197428353em"> </tspan><tspan x="22.14" y="0" style="letter-spacing:0.02205328212242257em">Д</tspan><tspan x="25.63" y="0" style="letter-spacing:0.05484046262301542em">о</tspan><tspan x="28.69" y="0" style="letter-spacing:-0.009953251223394258em">л</tspan><tspan x="31.55" y="0" style="letter-spacing:-0.04000816668227103em">и</tspan><tspan x="34.15" y="0" style="letter-spacing:-0.033958151232756875em">н</tspan><tspan x="36.74" y="0" style="letter-spacing:-0.00019516178869400505em">а</tspan></text><text transform="matrix(0, -1, 1, 0, 261.65, 126.1)" style="font-size:5px;fill:#595959;font-family:ArialMT, Arial"><tspan style="letter-spacing:-0.02010166423548252em">п</tspan><tspan x="2.61" y="0" style="letter-spacing:0.0848953780818922em">е</tspan><tspan x="5.81" y="0" style="letter-spacing:0.05698724229864947em">р</tspan><tspan x="8.88" y="0" style="letter-spacing:0.0848953780818922em">е</tspan><tspan x="12.08" y="0" style="letter-spacing:0.02010166423548252em">ва</tspan><tspan x="17.72" y="0" style="letter-spacing:-0.009953251223394258em">л</tspan><tspan x="20.59" y="0" style="letter-spacing:-0.05913402197428353em"> </tspan><tspan x="21.68" y="0" style="letter-spacing:0.02205328212242257em">Д</tspan><tspan x="25.18" y="0" style="letter-spacing:-0.016003266672908415em">х</tspan><tspan x="27.6" y="0" style="letter-spacing:0.019906502446788515em">а</tspan><tspan x="30.48" y="0" style="letter-spacing:-0.008977442279924232em">м</tspan><tspan x="33.87" y="0" style="letter-spacing:-0.02010166423548252em">п</tspan><tspan x="36.48" y="0" style="letter-spacing:-0.035129121964920906em">у</tspan><tspan x="38.8" y="0">с</tspan></text><text transform="matrix(0, -1, 1, 0, 281.79, 115.08)" style="font-size:5px;fill:#595959;font-family:ArialMT, Arial;letter-spacing:0.02205328212242257em">Д<tspan x="3.5" y="0" style="letter-spacing:-0.016003266672908415em">х</tspan><tspan x="5.92" y="0" style="letter-spacing:0.10382607158521068em">а</tspan><tspan x="9.22" y="0" style="letter-spacing:-0.008977442279924232em">м</tspan><tspan x="12.61" y="0" style="letter-spacing:-0.02010166423548252em">п</tspan><tspan x="15.22" y="0" style="letter-spacing:-0.0349339601762269em">у</tspan><tspan x="17.54" y="0" style="letter-spacing:-0.006050015449514156em">с</tspan><tspan x="20.01" y="0" style="letter-spacing:-0.05913402197428353em"> </tspan><tspan x="21.11" y="0" style="letter-spacing:-0.019906502446788515em">п</tspan><tspan x="23.71" y="0" style="letter-spacing:-0.04000816668227103em">и</tspan><tspan x="26.31" y="0" style="letter-spacing:-0.00019516178869400505em">к</tspan></text><text transform="matrix(0, -1, 1, 0, 301.92, 110.54)" style="font-size:5px;fill:#595959;font-family:ArialMT, Arial;letter-spacing:0.028103297571936726em">Я<tspan x="3.75" y="0" style="letter-spacing:0.03590976911969693em">к</tspan><tspan x="6.12" y="0" style="letter-spacing:-0.05913402197428353em"> </tspan><tspan x="7.21" y="0" style="letter-spacing:0.04000816668227103em">К</tspan><tspan x="10.33" y="0" style="letter-spacing:-0.016003266672908415em">х</tspan><tspan x="12.75" y="0" style="letter-spacing:0.10402123337390469em">а</tspan><tspan x="16.05" y="0" style="letter-spacing:0.05679208050995547em">р</tspan><tspan x="19.11" y="0" style="letter-spacing:0.03610493090839093em">к</tspan><tspan x="21.48" y="0" style="letter-spacing:-0.00019516178869400505em">а</tspan></text><text transform="matrix(0, -1, 1, 0, 322.05, 103.88)" style="font-size:5px;fill:#595959;font-family:ArialMT, Arial;letter-spacing:-0.02088231139025854em">М<tspan x="4.06" y="0" style="letter-spacing:0.10382607158521068em">а</tspan><tspan x="7.36" y="0" style="letter-spacing:0.05698724229864947em">р</tspan><tspan x="10.43" y="0" style="letter-spacing:-0.04000816668227103em">ф</tspan><tspan x="14.34" y="0" style="letter-spacing:-0.00019516178869400505em">а</tspan></text><text transform="translate(144.43 81.33)" style="font-size:4px;font-family:ArialMT, Arial">по<tspan x="4.39" y="0" style="letter-spacing:-0.01123046875em">р</tspan><tspan x="6.57" y="0">яд</tspan><tspan x="11.07" y="0" style="letter-spacing:0.01123046875em">к</tspan><tspan x="12.87" y="0">овый день марш</tspan><tspan x="43.81" y="0" style="letter-spacing:-0.01123046875em">р</tspan><tspan x="45.99" y="0">у</tspan><tspan x="47.99" y="0" style="letter-spacing:-0.01123046875em">т</tspan><tspan x="49.77" y="0">а</tspan></text><text transform="translate(3.43 30.93) rotate(-90)" style="font-size:4px;font-family:ArialMT, Arial">вы<tspan x="5" y="0" style="letter-spacing:0.01123046875em">с</tspan><tspan x="7.04" y="0" style="letter-spacing:-0.02197265625em">о</tspan><tspan x="9.18" y="0" style="letter-spacing:-0.01123046875em">т</tspan><tspan x="10.97" y="0">а</tspan></text></svg>