<svg xmlns="http://www.w3.org/2000/svg" viewBox="0 0 390.8 349.2"><title>dhaulagiri</title><path d="M314.16,295.79v-.27c0-1,0-2.09,0-3.29,0-4.18-.08-9.61.24-14.55-4-.31-9.21-.95-15.55-1.91a43.5,43.5,0,0,1-3,12.22,8.46,8.46,0,0,0,1.33.61c.9.29,5.55,2,7.25,6.81.78,2.22,1.14,5.76-1.63,10l-.08.12a11.33,11.33,0,0,1-9.49,5,17.48,17.48,0,0,1-5.89-1.17l-.35-.13c-4-1.37-12.09-10.87-13.11-13.69-.43-1.19-.62-2.61-1.29-8.72-.07-.63-.15-1.34-.23-2.1a8.78,8.78,0,0,1-.73.7,21.7,21.7,0,0,0-3.49,4.58c2.19,2.92,4.73,7.39,1.64,12.44-1.67,5-8.37,6.63-9.73,6.92a16.31,16.31,0,0,1-3.34.36,11.32,11.32,0,0,1-9.1-4.14,6.18,6.18,0,0,1-.74-1.17,38.78,38.78,0,0,1-3.94-13.16,79.06,79.06,0,0,1-23.62,13,54.66,54.66,0,0,1-17,2.9,34.26,34.26,0,0,1-19-5.2c-10.67-7-12.64-18.13-10.63-23.75a10.37,10.37,0,0,1,9-6.82l.73,0a10.21,10.21,0,0,1,9,5.4,23.49,23.49,0,0,1,1.07,2.35c.85,2.13,1.41,3.52,7.27,4.64a10.65,10.65,0,0,0,2.08.19c8.36,0,18.77-7.93,21.76-10.35S234.46,261,238.92,254.8a34.43,34.43,0,0,0,2.05-4.54c2.54-6.27,6-14.83,14.29-21.1,10-7.59,25.1-9,33.19-9.24h.28c1.76,0,6.5.3,13.66.76l1.22.08c8.21.53,20.62,1.32,24.37,1.32h.4c.33-.1,1.31-.58,2-.9A26.08,26.08,0,0,1,341.74,218h.63A31.14,31.14,0,0,1,353.69,220l.88.31c1.29.26,9.48.68,12.18.82l1.59.08a164.6,164.6,0,0,0,4.13-36.72c0-90.8-73.87-164.67-164.67-164.67A163.66,163.66,0,0,0,122.55,43.7a55.45,55.45,0,0,0-69.94,85.76,164,164,0,0,0-9.48,55.07c0,90.8,73.87,164.67,164.67,164.67a164,164,0,0,0,110.76-42.93C315,303.26,314.16,297.88,314.16,295.79ZM162.38,152.62,69.82,237.18a147.66,147.66,0,0,1-2.6-97.93A55.46,55.46,0,0,0,135.07,56,146.82,146.82,0,0,1,207.8,36.84c81.44,0,147.69,66.25,147.69,147.69a147.48,147.48,0,0,1-3.5,32c-20-23.38-66.13-77.06-89.44-100.76C230.8,90,198.05,120,198.05,120l-31,28.34,2.85,1.51c.91.47,21.48,10.83,42.26-9.17,6.59-7.5,22.76-18.2,37.5-5.81.63.45,1.34,1,2.22,1.81,5.62,4.79,16.08,13.71,28.22,3.06l2.65-2.41,4.08,4.5L284,144.28c-16,14.07-30.59,1.66-36.07-3-.78-.67-1.46-1.24-1.86-1.52l-.24-.18c-14.08-11.95-28.68,4.47-29.3,5.18l-.17.19c-11.38,11-23,13.91-32.08,13.91a40.59,40.59,0,0,1-17.25-3.67Z" style="fill:#fff"/><path d="M186.07,297.75c7.8,5.15,19.35,5.77,31.68,1.72C228.44,296,243,287.4,252.69,274a84.36,84.36,0,0,1-3.32,8.27c-.37.81-.62,1.37-.72,1.68-.65,2-2.43,7.49,2.72,18.24a1.14,1.14,0,0,0,.15.23,6.33,6.33,0,0,0,5.19,2.26,12.06,12.06,0,0,0,2.31-.25c2.61-.56,5.63-2.09,6.1-3.86a2.83,2.83,0,0,1,.37-.74c1.26-2,1.19-3.82-2.61-8.46-1.13-2.11,3.71-8.24,5.48-9.77.85-.74,4.36-4.79,7.48-8.45.62,3.05,1.31,9.33,1.72,13.08.54,5,.77,6.89,1,7.57.65,1.79,7.79,9.9,10,10.67l.38.13a12.91,12.91,0,0,0,4.23.89,6.34,6.34,0,0,0,5.38-2.81c1.34-2.07,1.7-4,1.1-5.64-.95-2.69-4-3.7-4.12-3.74-1.19-.4-4.48-1.89-5.22-3.89a2.61,2.61,0,0,1,.32-2.34c2.89-4.91,3.52-15.18,3.61-17.11,9,1.47,20,3,25.58,2.88-1,6.85-.72,17-.72,22.64v.27c0,1.89,1,6.06,3.45,7.21,1.76.83,14.3,2.51,16.34-.4a5.12,5.12,0,0,0,.79-4.65c-.55-1.69-2.12-3-4.57-3.81l-1.65-.54a17,17,0,0,1-2.49-.92s0-.12,0-.26c.18-1.78,5.09-13.52,8.68-19.47a83.12,83.12,0,0,1,4.18,8.13c1.16,2.44,2.16,4.56,2.9,5.75,1.9,3.08,10.29,13.82,12,15.33,1.06.95,5.39,2.51,10,2.51a14.25,14.25,0,0,0,8.5-2.44,1.18,1.18,0,0,0,.3-.33c1.19-1.9,1.43-3.59.71-5-1.05-2.07-3.9-3.24-8.72-3.6-3.24-.24-4.63-3.48-4.69-3.62L358,262.57a1.17,1.17,0,0,0-.47-.67,14.16,14.16,0,0,0,2.51-2.57c2.49-3.59,7.5-7,10.08-6.81,2.83.17,7.21,2.42,9.28,4a3.37,3.37,0,0,0,3.17.44,7.68,7.68,0,0,0,4.11-3.95,7.8,7.8,0,0,0,4-4.89,2.65,2.65,0,0,0-.46-2.75,44.43,44.43,0,0,1-3.16-4.63,4,4,0,0,0,.47-2.29c-.22-2.77-3-5.83-8.23-9.1a4.48,4.48,0,0,0,0-3.21,3.94,3.94,0,0,0-2.51-2.27c-1.86-.6-4,1-5.09,2.59-1.21-.08-3-.17-5.1-.28-4.84-.25-12.16-.62-13.44-1l-1.05-.37a26.46,26.46,0,0,0-10.25-1.8,21,21,0,0,0-9.24,2.7,13.89,13.89,0,0,1-3.5,1.38c-1.68.25-15.61-.64-25.78-1.29-7.5-.48-13.42-.87-14.72-.83-7.51.18-21.39,1.48-30.29,8.22-7.18,5.44-10.35,13.26-12.67,19a31.63,31.63,0,0,1-2.64,5.61c-.11.16-11.55,15.95-16.19,19.72-4.95,4-17.59,13.17-27.92,11.19-8.54-1.62-9.84-4.83-11-7.66a17.14,17.14,0,0,0-.84-1.89,5.2,5.2,0,0,0-5-2.74,5.37,5.37,0,0,0-4.68,3.51C176.17,283.28,177.45,292.06,186.07,297.75Z" style="fill:#fff"/><rect x="89.59" width="2.64" height="21.97" style="fill:#fff"/><rect x="50.48" y="9.6" width="2.64" height="22.64" transform="translate(-3.32 30) rotate(-31.35)" style="fill:#fff"/><rect x="21.21" y="38.1" width="2.64" height="23.03" transform="translate(-31.75 44.79) rotate(-60.5)" style="fill:#fff"/><rect x="10.35" y="78.31" width="2.64" height="23.3" transform="translate(-78.49 99.93) rotate(-88.92)" style="fill:#fff"/><rect x="10.98" y="128.46" width="24.06" height="2.64" transform="translate(-61.84 28.92) rotate(-30.02)" style="fill:#fff"/><rect x="41.82" y="156.94" width="21.62" height="2.64" transform="matrix(0.5, -0.87, 0.87, 0.5, -110.73, 124.69)" style="fill:#fff"/><rect x="91.35" y="157.33" width="2.64" height="22.33" style="fill:#fff"/><rect x="130.46" y="145.93" width="2.64" height="22.54" transform="translate(-61.51 88.52) rotate(-30.46)" style="fill:#fff"/><rect x="157.62" y="117.32" width="2.64" height="20.95" transform="translate(-31.49 200.8) rotate(-59.78)" style="fill:#fff"/><rect x="158.06" y="87.28" width="21.72" height="2.64" transform="translate(-2.09 4.09) rotate(-1.38)" style="fill:#fff"/><rect x="147.31" y="48.96" width="21.5" height="2.64" transform="translate(-2.14 93.23) rotate(-32.66)" style="fill:#fff"/><rect x="118.44" y="20.44" width="21.84" height="2.64" transform="translate(47.38 124.16) rotate(-60.87)" style="fill:#fff"/></svg>