<svg xmlns="http://www.w3.org/2000/svg" xmlns:xlink="http://www.w3.org/1999/xlink" style="display:none"><symbol  viewBox='0 0 82.06 35.69' id='icon-altitude-down'>
    <title>altitude-down</title><path d="M81.53 28L54.3 10.92 33.02 24.95l-7.39-5.84-1.49.9-.92-.61 2.49-1.51 7.36 5.82L54.28 9.74l27.78 17.42-.53.84zM.56 35.69L0 34.87l5.46-3.72.58.81-5.48 3.73zM13.27 35.64L1.68 22.03l.76-.64 10.85 12.73 11.09-12.54.75.66-11.86 13.4z"></path><path d="M12.78 0h1v33.88h-1z"></path>
  </symbol><symbol  viewBox='0 0 82.06 36.13' id='icon-altitude-up'>
    <title>altitude-up</title><path d="M81.53 28.44L54.3 11.36 33.02 25.38l-7.39-5.84-7.24 4.37-.52-.85 7.84-4.73 7.36 5.82 21.21-13.98 27.78 17.42-.53.85zM0 35.302l8.55-5.832.563.826-8.55 5.832zM1.26 15.64l-.76-.65L13.28 0l12.93 14.63-.75.66L13.29 1.52 1.26 15.64z"></path><path d="M12.78.76h1v34.55h-1z"></path>
  </symbol><symbol  viewBox="0 0 80 38.52" id='icon-bus'>
    <title>bus</title><path d="M22,33.16a5.36,5.36,0,1,1-5.36-5.36A5.36,5.36,0,0,1,22,33.16ZM63.36,27.8a5.36,5.36,0,1,0,5.36,5.36,5.36,5.36,0,0,0-5.36-5.36ZM80,13.26V27.17A4.85,4.85,0,0,1,75.14,32H69.93a6.57,6.57,0,0,0-13,0H23.06a6.57,6.57,0,0,0-13,0h-5A4.86,4.86,0,0,1,0,27.36V4.77A4.79,4.79,0,0,1,4.81,0H66.43A13.28,13.28,0,0,1,80,13ZM19,4H4V15H19ZM37,4H22V15H37ZM55,4H40V15H55ZM76.38,15c0-6-3.58-11-9.56-11H58V15Z"/>
  </symbol><symbol  viewBox='0 0 512 375.4' id='icon-departure'>
    <title>departure</title><path fill="currentcolor" d="M501.33 354.07H10.66a10.67 10.67 0 0 0 0 21.33h490.67a10.67 10.67 0 1 0 0-21.33zM4 142.49l121.18 97.87a10.56 10.56 0 0 0 6.69 2.37 11 11 0 0 0 3.66-.64l342.31-124.61a10.66 10.66 0 0 0 4.16-2.73 171.13 171.13 0 0 0 17-22.08C510.81 74.34 514.59 59 510.23 47s-17.11-21.31-37.92-27.77a172 172 0 0 0-27.25-6 10.71 10.71 0 0 0-4.94.57L312.56 60.29 158.88.72a10.75 10.75 0 0 0-7.52-.08L88.69 23.46a10.66 10.66 0 0 0-3.25 18.17l83.69 70.86-38.28 13.93-53-24.71a10.74 10.74 0 0 0-8.16-.36L7 124.17a10.66 10.66 0 0 0-3 18.32zM154.9 22.06l190.2 73.71-113.78 41.42-118.06-100zM72.85 122.91l53 24.71a10.69 10.69 0 0 0 8.15.38l53.87-19.62 34.37 29.11a10.69 10.69 0 0 0 10.54 1.88l146.27-53.24a10.66 10.66 0 0 0 .21-20L342.77 72 445 34.79c17.62 2.56 41.87 10.34 45.22 19.52 1.83 5-1.52 15-8.94 26.58a154.05 154.05 0 0 1-13.2 17.46L133.87 220l-101.8-82.24z"></path>
  </symbol><symbol  viewBox='0 0 89.07 89.08' id='icon-flight-ticket'>
    <title>flight-ticket</title><path d="M89.07 26.35L62.73 0 49.67 13.06l-13-7.22-11.56 20.83a4.28 4.28 0 0 0-.4 3.21 4.31 4.31 0 0 0-2.51 2L11.52 51.21 0 62.73 3.31 66 .15 71.75 20 82.76l6.32 6.32 37.95-38a4.81 4.81 0 0 0 1.42-3.45v-.14a4.88 4.88 0 0 0 3.6-1.42zM24.53 33.2a1.72 1.72 0 0 1 2.27-.65l1.29-2.33a1.67 1.67 0 0 1-.8-1 1.63 1.63 0 0 1 .15-1.22L37.68 9.46l10 5.55L43 19.76a4.86 4.86 0 0 0-1.43 3.45.76.76 0 0 0 0 .15A5 5 0 0 0 38 24.78L18.33 44.4zM3.76 70.71L5.27 68l7.94 7.94zM64.3 44.23l-1.61-1.62-1.88 1.89 1.61 1.61a2.2 2.2 0 0 1 .64 1.56 2.22 2.22 0 0 1-.64 1.57L26.35 85.31 3.76 62.73l36.07-36.07a2.29 2.29 0 0 1 3.14 0l.9.9 1.88-1.88-.9-.9a2.22 2.22 0 0 1 0-3.14L62.73 3.76l22.58 22.59-17.88 17.87a2.28 2.28 0 0 1-3.13.01z"></path><path d="M45.75 29.446l1.882-1.88 1.88 1.881-1.881 1.88zM49.517 33.208l1.881-1.881 1.881 1.88-1.88 1.882zM53.277 36.969l1.881-1.88 1.88 1.88-1.88 1.881zM57.042 40.738l1.881-1.881 1.881 1.88-1.88 1.882zM10.034 65.246l32.598-32.598 1.88 1.881-32.597 32.598zM15.059 70.252l13.166-13.166 1.881 1.881L16.94 72.133zM29.584 55.735l4.943-4.943 1.881 1.881-4.943 4.943zM21.95 77.155L42.03 57.083l1.88 1.882-20.078 20.07zM36.446 48.853l4.944-4.942 1.88 1.881-4.943 4.942zM42.728 42.585l4.95-4.948 1.88 1.88-4.95 4.95zM78.43 29.06v-6.81l-8.88-4.44v-4.5a4 4 0 0 0-4-4h-.89a4 4 0 0 0-4 4v4.06l-9.76 4.88v6.8l9.87-1.51.23 2.83-3 1.36v6l3.48-.66.17 2.4h6.85l.19-2.41 3.52.67v-6l-3-1.36.21-2.7zm-8.87 4.38v1.09l-3.28-.62-.23 2.91h-1.91l-.21-2.9-3.26.61v-1.09L63.79 32l-.56-7.56L53.58 26v-2.11L63.34 19v-5.7a1.34 1.34 0 0 1 1.33-1.3h.89a1.33 1.33 0 0 1 1.33 1.33v6.15l8.87 4.43V26L67 24.61 66.43 32z"></path>
  </symbol><symbol  viewBox='0 0 18 20' id='icon-hash'>
    <title>hash</title><path d="M17 8H1a1 1 0 0 1 0-2h16a1 1 0 0 1 0 2zM17 14H1a1 1 0 0 1 0-2h16a1 1 0 0 1 0 2z"></path><path d="M5 20h-.11A1 1 0 0 1 4 18.89l2-18a1 1 0 0 1 2 .22l-2 18A1 1 0 0 1 5 20zM11 20h-.11a1 1 0 0 1-.88-1.1l2-18a1 1 0 0 1 1.1-.9A1 1 0 0 1 14 1.11l-2 18a1 1 0 0 1-1 .89z"></path>
  </symbol><symbol  viewBox='0 0 61 57.28' id='icon-hotel-3star'>
    <title>hotel-3star&#x44B;</title><path d="M22.93,11.28a1,1,0,0,1-.57-.19l-1.24-.93-1.24.93a1,1,0,0,1-1.08,0,1,1,0,0,1-.42-1l.33-1.68-1.33-1a1,1,0,0,1-.33-1.07,1,1,0,0,1,.9-.65h1.68l.64-1.28a1,1,0,0,1,1.7,0l.64,1.28h1.68a1,1,0,0,1,.9.65,1,1,0,0,1-.33,1.07l-1.33,1,.33,1.68a1,1,0,0,1-.42,1A.92.92,0,0,1,22.93,11.28ZM18,6.75,19.82,8l-.46,2.29,1.76-1.42L23,10.29,22.42,8l1.84-1.37L22,6.75l-.92-1.83-.84,1.83Z"/><path d="M31.93,7.28a1,1,0,0,1-.57-.19l-1.24-.93-1.24.93a1,1,0,0,1-1.08,0,1,1,0,0,1-.42-1l.33-1.68-1.33-1a1,1,0,0,1-.33-1.07,1,1,0,0,1,.9-.65h1.68L29.27.47a1,1,0,0,1,1.7,0l.64,1.28h1.68a1,1,0,0,1,.9.65,1,1,0,0,1-.33,1.07l-1.33,1,.33,1.68a1,1,0,0,1-.42,1A.92.92,0,0,1,31.93,7.28ZM27,2.75,28.82,4l-.46,2.29,1.76-1.42L32,6.29,31.43,4l1.83-1.37L31,2.75,30.08.92l-.84,1.83Z"/><path d="M40.93,11.28a1,1,0,0,1-.57-.19l-1.24-.93-1.24.93a1,1,0,0,1-1.08,0,1,1,0,0,1-.42-1l.33-1.68-1.33-1a1,1,0,0,1-.33-1.07,1,1,0,0,1,.9-.65h1.68l.64-1.28a1,1,0,0,1,1.7,0l.64,1.28h1.68a1,1,0,0,1,.9.65,1,1,0,0,1-.33,1.07l-1.33,1,.33,1.68a1,1,0,0,1-.42,1A.92.92,0,0,1,40.93,11.28ZM36,6.75,37.82,8l-.46,2.29,1.76-1.42L41,10.29,40.43,8l1.83-1.37L40,6.75l-.92-1.83-.84,1.83Z"/><path d="M59.5,57.28H34V45.78a.5.5,0,0,0-.5-.5h-6a.5.5,0,0,0-.5.5v11.5H1.5a1.5,1.5,0,0,1,0-3H4V31.78a1.5,1.5,0,0,1,1.5-1.5H18V13.78a1.5,1.5,0,0,1,1.5-1.5h22a1.5,1.5,0,0,1,1.5,1.5v16.5H55.5a1.5,1.5,0,0,1,1.5,1.5v22.5h2.5a1.5,1.5,0,0,1,0,3Zm-24.5-1H59.5a.5.5,0,0,0,.5-.5.5.5,0,0,0-.5-.5H56V31.78a.5.5,0,0,0-.5-.5H42V13.78a.5.5,0,0,0-.5-.5h-22a.5.5,0,0,0-.5.5v17.5H5.5a.5.5,0,0,0-.5.5v23.5H1.5a.5.5,0,0,0-.5.5.5.5,0,0,0,.5.5H26V45.78a1.5,1.5,0,0,1,1.5-1.5h6a1.5,1.5,0,0,1,1.5,1.5Zm20-1H42v-23H55Zm-12-1H54v-21H43Zm-24,1H6v-23H19Zm-12-1H18v-21H7Zm30.5-15h-4a1.5,1.5,0,0,1-1.5-1.5v-8a1.5,1.5,0,0,1,1.5-1.5h4a1.5,1.5,0,0,1,1.5,1.5v8A1.5,1.5,0,0,1,37.5,39.28Zm-4-10a.5.5,0,0,0-.5.5v8a.5.5,0,0,0,.5.5h4a.5.5,0,0,0,.5-.5v-8a.5.5,0,0,0-.5-.5Zm-6,10h-4a1.5,1.5,0,0,1-1.5-1.5v-8a1.5,1.5,0,0,1,1.5-1.5h4a1.5,1.5,0,0,1,1.5,1.5v8A1.5,1.5,0,0,1,27.5,39.28Zm-4-10a.5.5,0,0,0-.5.5v8a.5.5,0,0,0,.5.5h4a.5.5,0,0,0,.5-.5v-8a.5.5,0,0,0-.5-.5Zm14-2h-4a1.5,1.5,0,0,1-1.5-1.5v-8a1.5,1.5,0,0,1,1.5-1.5h4a1.5,1.5,0,0,1,1.5,1.5v8A1.5,1.5,0,0,1,37.5,27.28Zm-4-10a.5.5,0,0,0-.5.5v8a.5.5,0,0,0,.5.5h4a.5.5,0,0,0,.5-.5v-8a.5.5,0,0,0-.5-.5Zm-6,10h-4a1.5,1.5,0,0,1-1.5-1.5v-8a1.5,1.5,0,0,1,1.5-1.5h4a1.5,1.5,0,0,1,1.5,1.5v8A1.5,1.5,0,0,1,27.5,27.28Zm-4-10a.5.5,0,0,0-.5.5v8a.5.5,0,0,0,.5.5h4a.5.5,0,0,0,.5-.5v-8a.5.5,0,0,0-.5-.5Z"/><polygon points="24.5 24.78 26.5 24.78 26.5 18.78 24.5 18.78 24.5 24.78"/><polygon points="28.5 56.78 32.5 56.78 32.5 46.78 28.5 46.78 28.5 56.78"/><polygon points="24.5 36.78 26.5 36.78 26.5 30.78 24.5 30.78 24.5 36.78"/><polygon points="34.5 36.78 36.5 36.78 36.5 30.78 34.5 30.78 34.5 36.78"/><polygon points="34.5 24.78 36.5 24.78 36.5 18.78 34.5 18.78 34.5 24.78"/><path d="M14.5,43.28h-4A1.5,1.5,0,0,1,9,41.78v-6a1.5,1.5,0,0,1,1.5-1.5h4a1.5,1.5,0,0,1,1.5,1.5v6A1.5,1.5,0,0,1,14.5,43.28Zm-4-8a.5.5,0,0,0-.5.5v6a.5.5,0,0,0,.5.5h4a.5.5,0,0,0,.5-.5v-6a.5.5,0,0,0-.5-.5Z"/><path d="M14.5,53.28h-4A1.5,1.5,0,0,1,9,51.78v-6a1.5,1.5,0,0,1,1.5-1.5h4a1.5,1.5,0,0,1,1.5,1.5v6A1.5,1.5,0,0,1,14.5,53.28Zm-4-8a.5.5,0,0,0-.5.5v6a.5.5,0,0,0,.5.5h4a.5.5,0,0,0,.5-.5v-6a.5.5,0,0,0-.5-.5Z"/><path d="M50.5,43.28h-4a1.5,1.5,0,0,1-1.5-1.5v-6a1.5,1.5,0,0,1,1.5-1.5h4a1.5,1.5,0,0,1,1.5,1.5v6A1.5,1.5,0,0,1,50.5,43.28Zm-4-8a.5.5,0,0,0-.5.5v6a.51.51,0,0,0,.5.5h4a.5.5,0,0,0,.5-.5v-6a.5.5,0,0,0-.5-.5Z"/><path d="M50.5,53.28h-4a1.5,1.5,0,0,1-1.5-1.5v-6a1.5,1.5,0,0,1,1.5-1.5h4a1.5,1.5,0,0,1,1.5,1.5v6A1.5,1.5,0,0,1,50.5,53.28Zm-4-8a.5.5,0,0,0-.5.5v6a.51.51,0,0,0,.5.5h4a.5.5,0,0,0,.5-.5v-6a.5.5,0,0,0-.5-.5Z"/>
  </symbol><symbol  viewBox='0 0 88.54 120' id='icon-ice-exe'>
    <title>ice-exe</title><path d="M88.44 30.1c-1.22-4.07-16.25-15.92-20.29-18C56.35 6.23 30.91 0 25.16 0c-.76 0-1.51.07-1.82.62a.7.7 0 0 0 .22.94c.06 0 5.48 3.58 7.56 5.19a.71.71 0 0 0 .81 0l.75-.48L34 8.3a.64.64 0 0 0 .24.22l2.03 1.18a.7.7 0 0 0 .83-.09l.53-.5 2.11 2.53a.72.72 0 0 0 .71.23s4.11-.95 11.89 3.73a3.78 3.78 0 0 1 .1.56 3.26 3.26 0 0 0 .29 1.08L4.18 104.77c-1.44 2.52-1.51 4.45-.28 5.8C2.74 113-.49 119.67.06 120s4.72-5.87 6.19-8.08a3.28 3.28 0 0 0 .69.1q2.28 0 4.16-3.27L62 22.63a.59.59 0 0 0 .25-.07 8.93 8.93 0 0 1 4.56-1.12 13 13 0 0 1 1.37.07h.15c1.22.19 12.34 6.3 19.06 10.11a.73.73 0 0 0 .35.09.71.71 0 0 0 .61-.36 1.57 1.57 0 0 0 .09-1.25zm-34.64-12l6.9 4-4.83 8.18-6.68-3.82zm1.35 13.35L15 99.35l-4.72-2.7 38.22-69zM9.88 108c-1.76 3.07-3.18 2.77-4.22 2.18s-2-1.68-.25-4.75l4.2-7.58 4.69 2.68zm58.6-87.9h-.15a14.83 14.83 0 0 0-1.5-.08 10.46 10.46 0 0 0-4.91 1.12l-8-4.56a3.25 3.25 0 0 1-.12-.62 2 2 0 0 0-.68-1.52c-5.86-3.54-9.82-4.07-11.66-4.07h-.93l-2.3-2.73a.67.67 0 0 0-.49-.25.75.75 0 0 0-.53.19l-.69.65-1.47-.84L33.48 5a.71.71 0 0 0-1-.21l-.93.59c-1.5-1.12-4-2.82-5.65-3.9 6.86.46 30.41 6.35 41.59 12 4.7 2.37 16.76 12.5 19.19 16.23-5.24-3.05-16.77-9.47-18.2-9.58z"></path><circle cx="60.18" cy="14.98" r="2.64"></circle>
  </symbol><symbol  viewBox='0 0 639.95 440.5' id='icon-itinerary'>
    <title>itinerary</title><path d="M35.25 195.3l-1.1-8.9c2-.2 4-.5 6-.7l.9 9c-1.8.2-3.8.4-5.8.6zM629.25 423.3a39.87 39.87 0 0 0-4.5-9.9l7.7-4.6a50.4 50.4 0 0 1 5.3 11.9zm-11.1-18.7a2.65 2.65 0 0 1-.5-.6 66.11 66.11 0 0 0-7.8-6.9l5.4-7.2a75.26 75.26 0 0 1 8.9 7.8 4.35 4.35 0 0 1 .6.7zm-17.9-13.6a109.8 109.8 0 0 0-10.3-5.1l3.6-8.2c4.1 1.8 7.7 3.6 11.1 5.5zm-21.2-9.5c-3.6-1.3-7.4-2.6-11.1-3.8l2.7-8.6c3.9 1.2 7.8 2.6 11.5 4zm-259.4-2.7c-4.2-.1-8.4-.4-12.3-.8l.9-9c3.7.4 7.6.6 11.6.7zm12.3-.1l-.3-9c3.7-.1 7.7-.4 11.7-.7l.8 9c-4.3.3-8.4.6-12.2.7zm24.2-1.9l-1.1-8.9c3.6-.4 7.4-.9 11.8-1.5l1.2 8.9c-4.3.5-8.3 1-11.9 1.5zm-61-.5a118.79 118.79 0 0 1-12.1-3l2.6-8.6c3.6 1.1 7.3 2 11.2 2.8zm261.5-1.9c-3.7-1-7.6-1.9-11.5-2.7l1.9-8.8c4 .9 8 1.8 11.8 2.8zm-176.6-.9l-1.3-8.9 2.8-.4 8-1.2 1.1-.2 1.3 8.9-1 .1-8 1.2zm23.6-3.4l-1.2-8.9q6.15-.75 12-1.5l1 8.9c-3.8.5-7.8 1-11.8 1.5zm130-.6c-3.8-.7-7.7-1.2-11.7-1.8l1.2-8.9c4 .5 8.1 1.1 12 1.8zm-262.5-.9a63.49 63.49 0 0 1-10.9-7l5.7-7a56.15 56.15 0 0 0 9.2 6zm156.2-1.2l-.9-9c4.1-.4 8.1-.7 12-1l.7 9c-3.8.3-7.8.6-11.8 1zm82.9-1c-3.8-.4-7.8-.7-11.8-.9l.5-9c4.1.2 8.2.5 12.1.9zm-59.2-.8l-.5-9c4-.2 8.1-.4 12.1-.5l.3 9c-4 .1-8 .3-11.9.5zm35.5-.6c-3.4-.1-6.9-.1-10.4-.1h-1.5v-9h1.5c3.6 0 7.1 0 10.6.1zm-235.2-13.2a29.27 29.27 0 0 1-4.7-13.2l9-.8a20.57 20.57 0 0 0 3.3 9.1zm5.9-23.4l-8.2-3.8a41.67 41.67 0 0 1 7.6-10.9l6.7 6a38.77 38.77 0 0 0-6.1 8.7zm14.3-17.1l-6.5-6.3a50 50 0 0 0 7.1-8.5l7.5 4.9a51.12 51.12 0 0 1-8.1 9.9zm13.6-22.2l-8.7-2.2a34.35 34.35 0 0 0 1-8.6 13.4 13.4 0 0 0-.1-2l9-.5c0 .8.1 1.6.1 2.5a47 47 0 0 1-1.3 10.8zm-9.7-23.4a47.22 47.22 0 0 0-4.3-10.1l7.9-4.4a65.62 65.62 0 0 1 5.1 11.9zm-10.7-19.1a75.31 75.31 0 0 0-8.1-7.8l5.7-7a77.22 77.22 0 0 1 9.2 8.8zm-17.3-14.3c-3.1-1.9-6.4-3.8-10.1-5.6l4-8.1c3.9 2 7.5 3.9 10.8 6zm-20.8-10.5c-1.8-.8-3.6-1.5-5.5-2.2s-3.7-1.4-5.5-2.1l3.2-8.4c1.9.7 3.8 1.4 5.6 2.2s3.8 1.5 5.6 2.3zm-22.1-8.4c-3.7-1.3-7.5-2.5-11.3-3.7l2.7-8.6c3.8 1.2 7.7 2.5 11.5 3.8zm-22.6-7c-3.8-1-7.6-2-11.5-3l2.1-8.7c3.9.9 7.9 2 11.7 3zm-23-5.6c-3.8-.8-7.8-1.6-11.6-2.2l1.6-8.9c4 .7 8 1.5 11.9 2.3zm-23.3-4.1q-5.85-.9-11.7-1.5l1-8.9c4 .5 8 1 12 1.6zm-23.6-2.7c-3.9-.3-7.9-.6-11.8-.8l.5-9c4 .2 8.1.5 12.1.8zm-59.1-.4l-.6-9c4-.3 8.1-.5 12.1-.7l.4 9c-4 .2-8 .5-11.9.7zm35.5-.8c-3.9-.1-7.9-.1-11.8-.1l-.1-9c4 0 8.1 0 12.1.1zM639.45 440.5l-8.9-1.4a30.76 30.76 0 0 0 .4-5.3l9-.1a37.53 37.53 0 0 1-.5 6.8zM283.25 81.5a39.28 39.28 0 0 1 23.5 7.6c9.9 7.2 15 17.1 15 29.4 0 20.6-21.2 76.9-34.4 109.5-15.7-31.5-41.2-86-42.7-106.6-.9-12.3 3.3-22.5 12.7-30.4a39.74 39.74 0 0 1 25.9-9.5m0-7.4a47.46 47.46 0 0 0-30.8 11.3c-9.4 8-16.5 20-15.2 36.7 2.4 31 50.8 123.7 50.8 123.7s41.2-96.1 41.2-127.2c0-16.8-8-28.1-18-35.4a46.83 46.83 0 0 0-28-9.1z"></path><circle cx="283.15" cy="123.4" r="20.7"></circle><path d="M583.85 195.6a39.28 39.28 0 0 1 23.5 7.6c9.9 7.2 15 17.1 15 29.4 0 20.6-21.2 76.9-34.4 109.5-15.7-31.5-41.2-86-42.7-106.6-.9-12.3 3.3-22.5 12.7-30.4a39.74 39.74 0 0 1 25.9-9.5m0-7.4a47.46 47.46 0 0 0-30.8 11.3c-9.4 8-16.5 20-15.2 36.7 2.4 31 50.8 123.7 50.8 123.7s41.2-96.1 41.2-127.2c0-16.8-8-28.1-18-35.4a46.83 46.83 0 0 0-28-9.1z"></path><path d="M598.85 252.6c16.8-22.1-8.2-47.1-30.3-30.3-16.8 22.2 8.2 47.2 30.3 30.3zM46.15 7.4a39.28 39.28 0 0 1 23.5 7.6c9.9 7.2 15 17.1 15 29.4 0 20.6-21.2 76.9-34.4 109.5-15.8-31.5-41.2-86-42.7-106.5-.9-12.3 3.3-22.5 12.7-30.4a39.31 39.31 0 0 1 25.9-9.6m0-7.4a47.46 47.46 0 0 0-30.8 11.3c-9.4 8-16.5 20-15.2 36.7 2.3 30.9 50.8 123.6 50.8 123.6s41.1-96.1 41.1-127.2c0-16.8-8-28.1-18-35.4a47.58 47.58 0 0 0-27.9-9z"></path><path d="M61.15 64.4c16.8-22.1-8.2-47.1-30.3-30.3-16.8 22.2 8.2 47.2 30.3 30.3z"></path>
  </symbol><symbol  viewBox='0 0 91.54 90.07' id='icon-jeep'>
    <title>jeep</title><path d="M89.73,27.61,63.94,1.81a6.21,6.21,0,0,0-8.76,0l-4.49,4.5L47.06,2.68l-7.42,7.43,3.62,3.62-.13.13-9.07,9.07-2-2A2.92,2.92,0,0,0,28,21L12.52,36.39a2.93,2.93,0,0,0-.79,2.69L0,27.35V90.07H62.72l-10.3-10.3A2.93,2.93,0,0,0,55.11,79L70.54,63.56a2.93,2.93,0,0,0,0-4.15l-1.93-1.93,9.07-9.07.12-.13L81.54,52,89,44.6l-3.74-3.74,4.5-4.5A6.2,6.2,0,0,0,89.73,27.61ZM39.84,24a4.48,4.48,0,1,1,0,6.34A4.47,4.47,0,0,1,39.84,24Zm-20.14,23a3,3,0,0,0,2.68-.79L29,39.61l4.3,4.31a3.86,3.86,0,0,0,.35,5.28l8.67,8.66a3.86,3.86,0,0,0,5.28.35l4.26,4.27-6.64,6.64a2.93,2.93,0,0,0-.79,2.69Zm26-10.86L52,29.86l9.69,9.69-6.33,6.33ZM67.47,51.66a4.48,4.48,0,1,1,0-6.33A4.48,4.48,0,0,1,67.47,51.66Zm7.68-9.94L49.82,16.39l9.74-9.74L84.89,32Z"/>
  </symbol><symbol  viewBox='0 0 511.99 426.8' id='icon-landing'>
    <title>landing</title><path d="M501.32 405.46H10.67a10.67 10.67 0 1 0 0 21.34h490.65a10.67 10.67 0 1 0 0-21.34zM60.55 165.58a10.64 10.64 0 0 0 6.81 8l56.36 20.51-62.07 35.65A10.68 10.68 0 0 0 63.33 249L126 271.84a10.28 10.28 0 0 0 5.85.4l130.93-27.56 146.92 53.48a10.59 10.59 0 0 0 3.64.65c.42 0 .86 0 1.28-.08a171.51 171.51 0 0 0 27.25-6c20.82-6.42 33.59-15.73 37.93-27.73s.6-27.31-11.2-45.64a171.1 171.1 0 0 0-17.05-22.08 10.56 10.56 0 0 0-4.12-2.73L138.15 82l-24.71-53a10.66 10.66 0 0 0-6-5.51L44.73.65a10.65 10.65 0 0 0-14.1 12.07zm69.9 85.16l-38.28-13.92L199.73 175l106.53 38.77zM96 42l24.72 53a10.61 10.61 0 0 0 6 5.51l310.9 113.16a154.39 154.39 0 0 1 13.2 17.45c7.42 11.62 10.77 21.56 8.94 26.59s-10.78 10.47-23.94 14.6a153.71 153.71 0 0 1-21.33 4.9l-112.18-40.84 44.87-9.45a10.67 10.67 0 0 0 1.46-20.46l-146.27-53.23a10.66 10.66 0 0 0-9 .77l-45.5 26.17-67.59-24.6L55.19 27.15z"></path>
  </symbol><symbol  viewBox='0 0 33.7 34.7' id='icon-lodge01'>
    <title>lodge01</title><path d="M33.2 19.7L.5 19.4a.49.49 0 0 1-.41-.21.51.51 0 0 1-.09-.46L6 2a.51.51 0 0 1 .43-.33L26.76 0a.48.48 0 0 1 .51.34L33.67 19a.48.48 0 0 1-.06.45.52.52 0 0 1-.41.25zm-32-1.29l31.29.28L26.45 1 6.86 2.67z"></path><path d="M20.3 19.7L.47 18.5a.49.49 0 0 1-.39-.23.51.51 0 0 1 0-.45L6 2a.52.52 0 0 1 .43-.32L26.56 0a.49.49 0 0 1 .44.19.48.48 0 0 1 .08.47l-6.3 18.7a.49.49 0 0 1-.48.34zM1.21 17.54L20 18.68l5.88-17.62-19 1.61z"></path><path d="M20.3 34.7h-.05l-19.8-2a.5.5 0 0 1-.45-.5V18a.48.48 0 0 1 .16-.36.47.47 0 0 1 .37-.14l19.8 1.2a.51.51 0 0 1 .47.5v15a.51.51 0 0 1-.16.37.5.5 0 0 1-.34.13zM1 31.75l18.8 1.9v-14L1 18.53z"></path><path d="M20.3 34.7a.46.46 0 0 1-.33-.13.48.48 0 0 1-.17-.37v-15a.5.5 0 0 1 .5-.5h12.9a.5.5 0 0 1 .5.5v13.5a.5.5 0 0 1-.44.5l-12.9 1.5zm.5-15v13.94l11.9-1.38V19.7z"></path><path d="M25.3 34a.47.47 0 0 1-.34-.13.52.52 0 0 1-.16-.37v-8.6a.5.5 0 0 1 .5-.5h2.6a.5.5 0 0 1 .5.5v8.4a.5.5 0 0 1-.46.5l-2.6.2zm.5-8.6V33l1.6-.12V25.4zM13.1 29.3l-2.5-.2a.5.5 0 0 1-.46-.5v-5.2a.5.5 0 0 1 .5-.5h2.5a.5.5 0 0 1 .5.5v5.4a.52.52 0 0 1-.16.37.53.53 0 0 1-.38.13zm-2-1.16l1.5.12V23.9h-1.5zM6.8 28.6l-2.6-.2a.5.5 0 0 1-.46-.5V23a.5.5 0 0 1 .5-.5H6.8a.5.5 0 0 1 .5.5v5.1a.52.52 0 0 1-.16.37.51.51 0 0 1-.34.13zm-2.1-1.16l1.6.12V23.5H4.7z"></path>
  </symbol><symbol  viewBox='0 0 31 16.3' id='icon-lodge02'>
    <title>lodge02</title><path d="M21.55 5.5h-20L5 1l19.29.75s1.18-.95 1-1L4.82 0a.5.5 0 0 0-.41.19l-4.3 5.5a.51.51 0 0 0-.06.53.5.5 0 0 0 .45.28h21.3c.2 0-.25-1-.25-1z"></path><path d="M30.5 6.5h-20a.52.52 0 0 1-.35-.14L4.45.86A.5.5 0 0 1 4.34.3a.47.47 0 0 1 .48-.3l21.8.9a.5.5 0 0 1 .36.18l3.9 4.6a.47.47 0 0 1 .07.53.49.49 0 0 1-.45.29zm-19.8-1h18.72l-3.06-3.61-20.27-.84z"></path><path d="M10.7 16.3a.53.53 0 0 1-.34-.13.52.52 0 0 1-.16-.37V6a.5.5 0 0 1 .5-.5h19.8a.5.5 0 0 1 .5.5v8.1a.5.5 0 0 1-.46.5l-19.8 1.7zm.5-9.8v8.76L30 13.64V6.5zm19.3 7.6z"></path><path d="M10.7 16.3l-10.2-1a.51.51 0 0 1-.5-.5V6a.5.5 0 0 1 .5-.5h10.2a.5.5 0 0 1 .5.5v9.8a.51.51 0 0 1-.16.37.5.5 0 0 1-.34.13zm-9.7-2l9.2.9V6.5H1z"></path><path d="M8.6 16l-2.2-.1a.5.5 0 0 1-.48-.5V9.9a.5.5 0 0 1 .5-.5H8.6a.5.5 0 0 1 .5.5v5.6a.5.5 0 0 1-.5.5zm-1.7-1.08l1.2.08v-4.6H6.9zM14.3 12.3a.48.48 0 0 1-.34-.14.48.48 0 0 1-.16-.36V8.3a.5.5 0 0 1 .5-.5h2a.5.5 0 0 1 .5.5v3.4a.5.5 0 0 1-.48.5l-2 .1zm2-.6zm-1.5-2.9v2.48h1V8.8zM23 12.2a.46.46 0 0 1-.33-.13.48.48 0 0 1-.17-.37V8.5A.5.5 0 0 1 23 8h1.8a.5.5 0 0 1 .5.5v3a.5.5 0 0 1-.44.5l-1.8.2zm1.8-.7zM23.5 9v2.14l.8-.09V9z"></path>
  </symbol><symbol  viewBox='0 0 89.74 37.09' id='icon-mountains'>
    <title>mountains</title><path d="M85.42 32.43l-4.37-4.61-4.4-4.59-4.41-4.56c-2.94-3.05-5.93-6.05-8.89-9.08l-9-9-.52-.59-.58.58-9 9L41.9 12 32 2.68l-.3-.28-.28.28L0 34.68 31.69 3.56l9.08 9.62q-2.69 2.73-5.36 5.49L31 23.23l-4.4 4.59-4.37 4.61c-1.45 1.54-2.9 3.09-4.33 4.65q2.34-2.16 4.65-4.33l4.61-4.37L31.75 24l4.56-4.41c3-2.94 6-5.93 9.08-8.89l8.43-8.37 8.44 8.37c3 3 6 5.95 9.07 8.89L75.9 24l4.58 4.39 4.61 4.37 4.65 4.33q-2.14-2.35-4.32-4.66z"></path>
  </symbol><symbol  viewBox='0 0 56.65 78.85' id='icon-porter'>
    <title>porter</title><path d="M50.15 26.9a6.5 6.5 0 1 1 6.5-6.5 6.51 6.51 0 0 1-6.5 6.5zm0-12a5.5 5.5 0 1 0 5.5 5.5 5.51 5.51 0 0 0-5.5-5.5zM23.74 78.85h-8l4.1-20.2 8.64 4.06-.05 5.55zm-6.83-1h6.17L27.42 68v-4.6l-6.92-3.26z"></path><path d="M38.73 78.81h-8.45V61.55C28 60.87 16.21 57 18.15 49.63c.39-1.46.68-2.47 1-3.27l.13-.39.41.05a25.82 25.82 0 0 0 3.41.25H24.55A5.71 5.71 0 0 0 27 45.14L30.39 43a47.29 47.29 0 0 0 5.53-4.09 1 1 0 0 0 .33-.69 1 1 0 0 0-.25-.72 1 1 0 0 0-1.42-.09 42.5 42.5 0 0 1-5.31 4l-3.16 2.13a4.09 4.09 0 0 1-2.24.89 30.43 30.43 0 0 1-5.67-.49l-7.26-1.14a5 5 0 0 1 1.28-10c5.38.68 10.71.94 12 1 1.27-1.84 9.4-12.95 17.49-8.87 4.26 2.16 5 7.19 3.35 10.81-1.34 2.87-7.69 12.78-8.91 14.66l6.56 8.6zm-7.45-1h6.63l3.73-18.57-6.75-8.78.19-.3c.08-.12 7.61-11.8 9-14.84 1.26-2.69 1.2-7.42-2.91-9.49-7.82-4-16.27 8.63-16.35 8.76l-.16.23h-.28c-.06 0-6.16-.23-12.32-1a4 4 0 0 0-4.48 3.48 4 4 0 0 0 3.49 4.51l7.29 1.06a28 28 0 0 0 5.47.47 3 3 0 0 0 1.68-.7l3.21-2.15a43 43 0 0 0 5.2-3.87 2 2 0 0 1 3.33 1.62 2 2 0 0 1-.67 1.38 48.76 48.76 0 0 1-5.65 4.18L27.6 46a6.63 6.63 0 0 1-3 1.25h-1.52a27.11 27.11 0 0 1-3.13-.2c-.23.71-.48 1.61-.81 2.82-1.85 7 11.66 10.76 11.8 10.8l.37.1z"></path><path d="M22.74 32.1L0 29.59V0h34.63v20.87l-.24.15c-.09.05-8.95 5.48-11.5 10.76zM1 28.69L22.15 31c2.62-5 10-9.79 11.48-10.71V1H1z"></path>
  </symbol><symbol  viewBox='0 0 92 92' id='icon-profile'>
    <title>profile</title><path d="M46 0a46 46 0 0 0-35.2 75.6c.9 1 1.8 2 2.8 3a45.87 45.87 0 0 0 64.8 0c1-1 1.9-2 2.8-3A46 46 0 0 0 46 0zm0 88a42.19 42.19 0 0 1-29.8-12.4A28.47 28.47 0 0 1 36.6 67h18.8a28.47 28.47 0 0 1 20.4 8.6A42.19 42.19 0 0 1 46 88zm32.5-15.4A32.66 32.66 0 0 0 55.4 63h-.2a22 22 0 1 0-18.4 0h-.2a32.66 32.66 0 0 0-23.1 9.6 42 42 0 1 1 65 0zM46 61a18 18 0 1 1 18-18 18.05 18.05 0 0 1-18 18z"></path>
  </symbol><symbol  viewBox='0 0 88.74 34.28' id='icon-snow-leopard'>
    <title>snow leopard</title><path d="M3.77 31c3.23 2.14 8 2.4 13.15.72a30.73 30.73 0 0 0 14.5-10.52A33.64 33.64 0 0 1 30 24.64a5.9 5.9 0 0 0-.3.69c-.27.84-1 3.11 1.13 7.58l.06.09a2.63 2.63 0 0 0 2.16.94 4.62 4.62 0 0 0 .95-.11c1.09-.23 2.34-.86 2.54-1.6a.93.93 0 0 1 .15-.3c.53-.85.5-1.59-1.08-3.52-.47-.87 1.54-3.42 2.27-4.05.36-.31 1.81-2 3.11-3.51.25 1.27.54 3.88.71 5.43a22.5 22.5 0 0 0 .43 3.14c.26.75 3.23 4.11 4.16 4.43h.16a5.2 5.2 0 0 0 1.76.38 2.65 2.65 0 0 0 2.23-1.17 2.6 2.6 0 0 0 .46-2.34 2.9 2.9 0 0 0-1.71-1.56c-.5-.16-1.86-.78-2.17-1.61a1.08 1.08 0 0 1 .13-1c1.2-2 1.46-6.3 1.5-7.1a74.41 74.41 0 0 0 10.62 1.19 71.1 71.1 0 0 0-.3 9.4v.11c0 .79.43 2.52 1.43 3 .73.35 5.93 1.05 6.78-.16a2.12 2.12 0 0 0 .33-1.93 2.74 2.74 0 0 0-1.9-1.58l-.61-.16a6.51 6.51 0 0 1-1-.38v-.1a42.65 42.65 0 0 1 3.6-8.09 35.88 35.88 0 0 1 1.74 3.37c.48 1 .89 1.9 1.2 2.39a64.61 64.61 0 0 0 5 6.36 7.86 7.86 0 0 0 4.16 1.05 5.86 5.86 0 0 0 3.53-1 .53.53 0 0 0 .13-.13 2.09 2.09 0 0 0 .29-2.09c-.43-.85-1.62-1.34-3.62-1.49a2.53 2.53 0 0 1-2-1.5l-2.91-11.27a.47.47 0 0 0-.2-.28 5.37 5.37 0 0 0 1-1.06c1-1.49 3.12-2.92 4.19-2.83A9.17 9.17 0 0 1 84 13.92a1.4 1.4 0 0 0 1.32.19A3.25 3.25 0 0 0 87 12.47a3.26 3.26 0 0 0 1.66-2 1.13 1.13 0 0 0-.19-1.15 15.8 15.8 0 0 1-1.31-1.92 1.61 1.61 0 0 0 .19-1C87.28 5.27 86.13 4 84 2.65a1.88 1.88 0 0 0 0-1.34 1.63 1.63 0 0 0-1-.94c-.77-.25-1.67.41-2.12 1.08-.5 0-1.26-.08-2.11-.12A54.72 54.72 0 0 1 73.1.9l-.44-.15A10.83 10.83 0 0 0 68.41 0a8.75 8.75 0 0 0-3.84 1.12 5.57 5.57 0 0 1-1.45.58c-.7.1-6.48-.27-10.7-.54C49.31 1 46.85.8 46.31.81c-3.11.08-8.88.62-12.57 3.42-3 2.26-4.3 5.5-5.26 7.87a12.92 12.92 0 0 1-1.1 2.33c0 .06-4.79 6.62-6.72 8.18s-7.3 5.47-11.59 4.65c-3.54-.67-4.08-2-4.55-3.18a7 7 0 0 0-.35-.78 2.15 2.15 0 0 0-2.06-1.14 2.24 2.24 0 0 0-1.95 1.46C-.34 25 .19 28.68 3.77 31zM68.1 19.88a2.8 2.8 0 0 1 .47-.49 14.79 14.79 0 0 0 5.6-2.64L77 28a3.49 3.49 0 0 0 2.82 2.19c2.17.16 2.68.71 2.8.94a1.13 1.13 0 0 1-.2 1c-2.14 1.49-5.87.42-6.36 0A68.93 68.93 0 0 1 71.31 26c-.28-.45-.7-1.35-1.15-2.29a20.74 20.74 0 0 0-2.06-3.83zm-26.3.06l1.2-1.41c.68.13 2.49.46 4.7.83 0 .11-.21 4.79-1.37 6.76a2.08 2.08 0 0 0-.21 1.88c.53 1.42 2.56 2.14 2.79 2.21a2 2 0 0 1 1.09.89 1.69 1.69 0 0 1-.35 1.44c-.75 1.05-1.81.78-2.83.42l-.16-.06a17.66 17.66 0 0 1-3.56-3.82c-.07-.23-.23-1.65-.36-2.91a37.52 37.52 0 0 0-.94-6.23zM1.11 24a1.22 1.22 0 0 1 1.07-.79 1.13 1.13 0 0 1 1.11.61c.11.21.2.44.3.68.54 1.35 1.21 3 5.29 3.79 4.54.86 9.73-2.67 12.41-4.85 2-1.65 6.71-8.1 6.91-8.38a13.69 13.69 0 0 0 1.21-2.53c.92-2.26 2.17-5.36 4.93-7.45 2.57-1.95 6.83-3.09 12-3.22.5 0 3.19.16 6 .35 5.91.38 10.16.64 10.91.52A6.31 6.31 0 0 0 65 2a7.82 7.82 0 0 1 3.41-1 9.84 9.84 0 0 1 3.91.69l.46.16a43.6 43.6 0 0 0 5.84.48c1.05 0 2 .1 2.4.14a.49.49 0 0 0 .5-.3c.2-.46.85-.91 1.08-.85a.68.68 0 0 1 .42.37 1.16 1.16 0 0 1-.15.92.51.51 0 0 0 .19.67c2.74 1.63 3.25 2.7 3.3 3.19a.56.56 0 0 1-.13.5.52.52 0 0 0-.09.64A23.44 23.44 0 0 0 87.78 10a2.28 2.28 0 0 1-1.28 1.59.49.49 0 0 0-.34.34A2.21 2.21 0 0 1 85 13.16a.38.38 0 0 1-.4 0 10 10 0 0 0-4.39-1.85c-1.6-.1-3.95 1.64-5.07 3.26-1 1.37-5.23 3.83-6.73 3.87a.49.49 0 0 0-.2.05 3.51 3.51 0 0 0-1.09 1.12.69.69 0 0 0-.11.13c-1.87 2.74-4.21 8.73-4.06 9.32s.38.77 1.7 1.21l.67.23a1.82 1.82 0 0 1 1.25.94 1.28 1.28 0 0 1-.25 1.05c-.53.49-4.68.19-5.44-.17-.55-.26-.86-1.58-.86-2.09v-.11a67 67 0 0 1 .39-9.84c0-.15-.11-.31-.22-.43a.62.62 0 0 0-.47-.16c-3.51.37-16.66-2.17-16.79-2.2h-.13a.51.51 0 0 0-.38.18c-1.83 2.18-4.72 5.56-5.15 5.94s-3.43 3.56-2.45 5.39c1.46 1.79 1.27 2.1 1.06 2.43a2 2 0 0 0-.27.58 3.54 3.54 0 0 1-2.1.93 1.94 1.94 0 0 1-1.76-.49c-1.29-2.7-1.65-5-1.09-6.69v-.1a5.13 5.13 0 0 1 .25-.58A35.64 35.64 0 0 0 33.37 18a.5.5 0 0 0-.93-.34c-3.63 7.06-10.8 11.5-15.84 13.16-4.76 1.56-9.35 1.34-12.28-.6C1.24 28.18.7 25.08 1.11 24z"></path>
  </symbol><symbol  viewBox='0 0 44.2 90.72' id='icon-stupa'>
    <title>stupa</title><path d="M38.45 58.44l-1-.14a2.89 2.89 0 0 0-.09-1h1.16a7.41 7.41 0 0 1-.07 1.14zm-32.7 0c-.06-.38-.11-.77-.17-1.15h1.25a3.36 3.36 0 0 0-.09 1z"></path><path d="M36.16 60.35H8.05a8.87 8.87 0 0 1-1.54-2.06h31.24a12.71 12.71 0 0 1-1.59 2.06zm-27.52-.74l27.1-.26s.32-.74.34-.76H8s.62 1 .64 1.02zM37.81 58.29h-31a1.52 1.52 0 0 1 0-.79 25.23 25.23 0 0 0 1.55-2.27h27.41c.67 1.03 1.43 2 2.04 3.06zm-29.62-1h27.74c-.24-.35-.47-.7-.7-1.06H8.89c-.23.36-.46.71-.7 1.06z"></path><path d="M35.83 55.23H8.38a22.77 22.77 0 0 0 2.07-3.94 45.91 45.91 0 0 0 1.69-6c.64-2.9.71-6.71 3.56-8.39 1.61-.9 3.76-.9 5.57-.9a35.63 35.63 0 0 1 5.27.2 5.27 5.27 0 0 1 3.76 2.5 15.54 15.54 0 0 1 1.37 4.9 58.63 58.63 0 0 0 1.81 7 21.85 21.85 0 0 0 2.35 4.63zm-25.69-1h23.91a32.08 32.08 0 0 1-3.26-9.88c-.5-2.59-.76-6.18-3.78-7a17.21 17.21 0 0 0-4.75-.35 30.3 30.3 0 0 0-4.47.24c-3.24.5-3.66 3.5-4.24 6.19-.8 3.7-1.55 7.46-3.41 10.8zM42.07 68.5H2.13v-4.07h39.94zm-38.94-1h37.94v-2.07H3.13zM44.2 90.72H0v-7.06h44.2zm-43.2-1h42.2v-5.06H1zM37.85 64.43H6.34v-4.08h31.51zm-30.51-1h29.51v-2.08H7.34zM26.54 34h-8.88v-4.07h8.88zm-7.88-1h6.88v-2.07h-6.88zM40 72.58H4.21V68.5H40zm-34.77-1H39V69.5H5.21zM40 83.62H4.21v-4.08H40zm-34.77-1H39v-2.08H5.21z"></path><path d="M37.85 79.54H6.34v-7h31.51zm-30.51-1h29.51v-5H7.34zM24.46 36h-4.72v-2h4.72zm-3.72-1h2.72zM26.54 27.82h-8.87l.56-4.07h7.7zm-7.73-1h6.57l-.31-2.07h-6zM26 23.75h-7.76l.57-4.07h6.57zm-6.56-1h5.4l-.28-2.07h-4.87zM25.39 19.68h-6.58l.59-4.08h5.4zm-5.42-1h4.26l-.29-2.08h-3.68zM24.81 15.6H19.4l.6-4.07h4.27zm-4.27-1h3.12l-.29-2.07h-2.54zM24.24 11.53H20l.53-3.7h3.22zm-3.12-1h2l-.23-1.7h-1.5zM22.11 4.78a1.35 1.35 0 0 1 0-2.7 1.35 1.35 0 0 1 0 2.7zm0-1.7c-.44 0-.41.71 0 .7a.35.35 0 0 0-.01-.7zM22.11 2.08a1.04 1.04 0 0 1 0-2.08 1.04 1.04 0 0 1 0 2.08zm0-1.08z"></path><path d="M22.11 7.83a1.04 1.04 0 0 1 0-2.08 1.04 1.04 0 0 1 0 2.08zm0-1.08zM23.14 29.89a1.036 1.036 0 1 1 .11-2.07 1.036 1.036 0 0 1-.11 2.07zm0-1.07z"></path><path d="M25.23 29.89a1.036 1.036 0 1 1 .11-2.07 1.036 1.036 0 0 1-.11 2.07zm0-1.07zM21.05 29.87a1.03 1.03 0 1 1 .19-2.05 1.03 1.03 0 0 1-.19 2.05zm0-1z"></path><path d="M19 29.75a1 1 0 0 1-.5-1.75 1.09 1.09 0 0 1 1.61.92L20 29v.05a1.11 1.11 0 0 1-1 .7zM22.08 6.25a3 3 0 0 1-2.93-2.87c0-.66.09-1.89 1-1.78.6.45.22 1.28.58 1.87a1.66 1.66 0 0 0 3-.44c.16-.7-.09-1.46.9-1.39a3.05 3.05 0 0 1-2.55 4.61z"></path>
  </symbol><symbol  viewBox='0 0 109.38 59.1' id='icon-tent'>
    <title>tent</title><path d="M108.55 49.58l-2.22-.23c-3.45-6.54-6.52-11.83-9.66-16.65a109.59 109.59 0 0 0-12.25-15.84A60.6 60.6 0 0 0 69.27 4.93 40.41 40.41 0 0 0 51.35 0h-.48c-6.17-.1-12.57 2.2-19 6.86A77.5 77.5 0 0 0 16.54 22.2a139.72 139.72 0 0 0-14 22.38.93.93 0 1 0 1.68.8A137.56 137.56 0 0 1 18 23.35a75.42 75.42 0 0 1 14.92-15c4.9-3.54 9.73-5.65 14.42-6.29A31.87 31.87 0 0 0 43.1 9.3 170.51 170.51 0 0 0 36 28.83c-2.83 9.08-5.24 18.23-6.6 23.58a.47.47 0 0 0 0 .17c-.71 2.79-1.12 4.5-1.13 4.54a.94.94 0 0 0 .69 1.13h.22a.93.93 0 0 0 .9-.71s.05-.2.13-.54a.93.93 0 0 0 .77.41H31c.17 0 17.69-1.36 35.19-2.85 29.85-2.53 35.26-3.33 36.51-3.72l5.65.57a.92.92 0 0 0 1-.82.93.93 0 0 0-.8-1.01zm-40.16-43a58.6 58.6 0 0 1 14.68 11.56 107.82 107.82 0 0 1 12 15.57c1.36 2.09 2.71 4.27 4.09 6.61l-27.52-28a3.49 3.49 0 0 0-1.37-.73 35 35 0 0 0-5.41-5.64 30 30 0 0 0-2.66-2 42.64 42.64 0 0 1 6.19 2.62zm8.45 22.89a29.11 29.11 0 0 0-7.42-8.09 14.33 14.33 0 0 0-6-2.56l2.34-2.27c1.54-1.5 2.48-2.41 2.77-2.72a1.22 1.22 0 0 1 1.19-.5 1.82 1.82 0 0 1 .62.3L96.25 40 98 44.65c-2.57.05-7.6.39-13.78.88a70.54 70.54 0 0 0-7.38-16.07zm-39.07-.08a171.18 171.18 0 0 1 7-19.28c3.41-7.41 5.35-8.23 6-8.23h.45a17.43 17.43 0 0 1 6.63 1.69 26.21 26.21 0 0 1 5.71 3.71 34.92 34.92 0 0 1 4.5 4.53 3.65 3.65 0 0 0-.91.73c-.26.28-1.29 1.28-2.71 2.66-6.32 6.12-22.2 21.49-32.25 33.58 1.45-5.3 3.39-12.37 5.58-19.4zm13.46 19c-7.84.73-14.44 1.37-17.66 1.68 5.11-6.16 11.78-13.21 17.93-19.45-.4 5.46-.29 15.86-.27 17.8zm38.6 2.16c-6.07.6-14.29 1.34-24.43 2.19a4525.5 4525.5 0 0 1-34.54 2.83.89.89 0 0 0-.36.11c.17-.69.38-1.55.63-2.55l.8-1c3.6-.35 59-5.73 66.85-5.63l2.22 2.82c-1.49.23-4.58.62-11.17 1.26zM103.06 49l-2.91-3.77-.75-2 2.86 2.91a1 1 0 0 0 .33.22c.5.91 1 1.84 1.52 2.8z"></path><path d="M31.8 56.83v-.43a.09.09 0 0 0 0-.05v-.05l-1.72-.9a.89.89 0 0 0 .54-.3.92.92 0 0 0-.08-1.31 55.48 55.48 0 0 0-15.88-9.31 65.55 65.55 0 0 0-8.96-3.41.93.93 0 1 0-.42 1.82s.4.09 1.07.28l-.62.88H.93a.93.93 0 0 0 0 1.86h5.28c.37 0 2.41.41 13 5.66 3.83 1.9 7.53 3.81 9.6 4.88l-1.9.88a.93.93 0 1 0 .82 1.67l3.6-1.68h.14l.07-.06.06-.06h.05v-.06l.15-.31zm-24-12.45l.46-.66c1.42.44 3.26 1.06 5.31 1.87a54 54 0 0 1 14.82 8.53 445.28 445.28 0 0 0-8.3-4.21 109.26 109.26 0 0 0-12.31-5.53z"></path>
  </symbol><symbol  viewBox='0 0 61.82 97.99' id='icon-trekking-boy'>
    <title>trekking-boy</title><path d="M42.25 16.67a8.34 8.34 0 1 1 8.34-8.33 8.34 8.34 0 0 1-8.34 8.33zm0-15.67a7.34 7.34 0 1 0 7.34 7.34A7.34 7.34 0 0 0 42.25 1z"></path><path d="M61.28 44.69A3.64 3.64 0 0 0 59 40.84l-12.56-4.47-5.67-15.57A9.86 9.86 0 0 0 34 15.37a7.29 7.29 0 0 0-7.59 3.41c.41-1.6.66-2.58.66-2.6a7.87 7.87 0 0 0 .26-1.95 8.08 8.08 0 0 0-8-8.17h-.09a8.07 8.07 0 0 0-7.91 6.44l-7.69 30a5.34 5.34 0 0 0-.16 1.18v.63a8.1 8.1 0 0 0 8 8.09h.07a8.4 8.4 0 0 0 7-3.87l-4.94 20.58L1.32 88.34a4.31 4.31 0 0 0-.78 2.56 5.48 5.48 0 0 0 1.35 4.42 6.27 6.27 0 0 0 4.18 2.14h.6a5.64 5.64 0 0 0 5.05-3l13.2-20.74c.27-.56.63-1.33 1.13-2.44l8.65-36.86-.21-.69-1.21-2.64a.62.62 0 0 1 .32-.85.61.61 0 0 1 .82.32l4.73 10.18.31.64a3.81 3.81 0 0 0 1.72 1.51l11.55 4.27-7 14-.73-.76L33.41 51l-2.64 11.9 8.39 7.46.06 3.91L29 94.85V95c0 .17.19 1.74 1.24 2.18a2.1 2.1 0 0 0 2.13-.57l.13-.17c.45-.91 3.27-6.66 6.85-13.91l.14 9.54a5.41 5.41 0 0 0 5.15 4.78 5.19 5.19 0 0 0 4.08-1.5 5.88 5.88 0 0 0 1.87-4l-.1-22.14A7 7 0 0 0 49 64.45l-.5-.52c3.72-7.55 6.85-13.88 7.65-15.5l.19.07h.15a4.32 4.32 0 0 0 4.79-3.81z" fill="none" stroke="#000" stroke-miterlimit="10"></path>
  </symbol><symbol  viewBox='0 0 118.85 99.76' id='icon-trekking-couple'>
    <title>trekking-couple</title><path d="M95.51,97.86a6.21,6.21,0,0,1-2-.33A5.4,5.4,0,0,1,90,92.88L88.51,71.82l-7-5.42,4.85-9.7,11.4,8.59a.93.93,0,0,1,.33.21l.11.11A2.08,2.08,0,0,1,99,67.24l1.8,25a5.07,5.07,0,0,1-1.33,3.87A5.34,5.34,0,0,1,95.51,97.86Z"/><path d="M75.18,25.36a2.36,2.36,0,0,1-1.55-.65,11.16,11.16,0,0,1-1.75-2.06A9.73,9.73,0,0,1,85.34,9.26,9.15,9.15,0,0,1,93,5.16a9.46,9.46,0,0,1,9.3,9.4A9.22,9.22,0,0,1,84,16a9,9,0,0,0-2.44,1,8.39,8.39,0,0,0-4,6.32A2.36,2.36,0,0,1,76,25.25,1.92,1.92,0,0,1,75.18,25.36Z"/><path d="M114.58,99.76a2.34,2.34,0,0,1-2.29-2.15L108.63,44,98.11,46.84a8.09,8.09,0,0,1-1.63.22,6.07,6.07,0,0,1-4.47-2l-2.08-2.24L80.84,63.46,66.51,94.17a5.47,5.47,0,0,1-5,3.09,6.21,6.21,0,0,1-2-.33,5.68,5.68,0,0,1-3-3,5.28,5.28,0,0,1,.1-4.09L71,59.15l2-7.66a7.43,7.43,0,0,1-4.66.25A7.21,7.21,0,0,1,64,48.28a7.34,7.34,0,0,1-.67-5.56l2.8-10.19A7.24,7.24,0,0,1,78.78,30l.17-.18a7.83,7.83,0,0,1,7.33-5.22,7.74,7.74,0,0,1,6.42,3.32l.33.32,5.48,6,12.8-3.43a6.63,6.63,0,0,1,1.53-.21,6,6,0,0,1,5.79,4.47,5.44,5.44,0,0,1-.67,4.51,6.35,6.35,0,0,1-3.68,2.8l-1.21.3,3.77,54.48a2.3,2.3,0,0,1-2,2.52h-.21Z"/><path d="M41.76,16.68A8.34,8.34,0,1,1,50.1,8.34h0A8.34,8.34,0,0,1,41.76,16.68Z"/><path d="M60.79,44.7a3.65,3.65,0,0,0-2.28-3.85L46,36.38,40.28,20.81a9.84,9.84,0,0,0-6.77-5.43,7.3,7.3,0,0,0-7.59,3.41c.41-1.6.66-2.58.66-2.6a7.57,7.57,0,0,0,.26-2,8.08,8.08,0,0,0-8-8.17h-.1a8.08,8.08,0,0,0-7.91,6.44l-7.69,30A5.88,5.88,0,0,0,3,43.69v.63a8.1,8.1,0,0,0,8,8.09h.07a8.41,8.41,0,0,0,7-3.87L13.12,69.12.83,88.35a4.34,4.34,0,0,0-.78,2.56A5.49,5.49,0,0,0,1.4,95.33a6.25,6.25,0,0,0,4.18,2.14h.6a5.64,5.64,0,0,0,5.05-3l13.2-20.74c.27-.56.63-1.33,1.13-2.44l8.65-36.86L34,33.74,32.79,31.1a.63.63,0,0,1,.28-.83l0,0a.61.61,0,0,1,.81.3v0l4.73,10.18.31.64a3.87,3.87,0,0,0,1.72,1.51l11.55,4.27-7,14-.73-.76L32.92,51l-2.64,11.9,8.39,7.46.06,3.91L28.51,94.86V95c0,.17.19,1.74,1.24,2.18a2.09,2.09,0,0,0,2.13-.57l.13-.17c.45-.91,3.27-6.66,6.85-13.91L39,92.08a5.41,5.41,0,0,0,5.15,4.78,5.19,5.19,0,0,0,4.08-1.5,5.87,5.87,0,0,0,1.87-4L50,69.22a6.94,6.94,0,0,0-1.49-4.76l-.5-.52c3.72-7.55,6.85-13.88,7.65-15.5l.19.07H56a4.32,4.32,0,0,0,4.79-3.79Z"/>
  </symbol><symbol  viewBox='0 0 62.63 94.6' id='icon-trekking-girl'>
    <title>trekking-girl</title><path d="M39.23 92.7a6.11 6.11 0 0 1-2-.33 5.39 5.39 0 0 1-3.54-4.64l-1.44-21.07-7-5.41 4.85-9.71 11.4 8.6a.81.81 0 0 1 .33.2l.11.11a2.14 2.14 0 0 1 .84 1.63l1.8 25a5.1 5.1 0 0 1-1.33 3.88 5.36 5.36 0 0 1-4.02 1.74zM26.46 61l6.75 5.19 1.52 21.52a4.38 4.38 0 0 0 2.88 3.77 4.62 4.62 0 0 0 4.85-1.16 4.09 4.09 0 0 0 1.07-3.13l-1.8-25a1.21 1.21 0 0 0-.5-.9l-.3-.2-10.52-8.03zm14.62.1zM18.93 20.2a2.31 2.31 0 0 1-1.55-.65 10.24 10.24 0 0 1-1.75-2.06A9.73 9.73 0 0 1 29.09 4.1 9.14 9.14 0 0 1 36.73 0 9.47 9.47 0 0 1 46 9.4a9.22 9.22 0 0 1-18.3 1.4 8.8 8.8 0 0 0-2.41 1 8.35 8.35 0 0 0-4 6.32 2.39 2.39 0 0 1-1.54 1.92 2 2 0 0 1-.82.16zm4.9-16.64a8.6 8.6 0 0 0-4.63 1.36 8.73 8.73 0 0 0-2.75 12 9.6 9.6 0 0 0 1.61 1.89 1.37 1.37 0 0 0 .87.38 1.54 1.54 0 0 0 .48-.05 1.42 1.42 0 0 0 .93-1.14 9.32 9.32 0 0 1 4.42-7A9.45 9.45 0 0 1 28 9.71l.54-.1.05.54A8.22 8.22 0 0 0 45 9.4 8.46 8.46 0 0 0 36.73 1a8.18 8.18 0 0 0-7.07 4.06l-.28.45-.44-.3a8.88 8.88 0 0 0-5.11-1.65z"></path><path d="M58.33 94.6A2.34 2.34 0 0 1 56 92.45l-3.63-53.61-10.51 2.84a8.29 8.29 0 0 1-1.63.22 6.08 6.08 0 0 1-4.47-2l-2.08-2.2-9.09 20.6L10.28 89a5.45 5.45 0 0 1-4.95 3.1 6.11 6.11 0 0 1-2-.33 5.64 5.64 0 0 1-3-3 5.22 5.22 0 0 1 .1-4.08L14.78 54l2-7.66a7.51 7.51 0 0 1-4.67.25 7.19 7.19 0 0 1-4.38-3.46 7.32 7.32 0 0 1-.67-5.55l2.8-10.2A7.19 7.19 0 0 1 13.31 23a7.15 7.15 0 0 1 9.21 1.81l.18-.17A7.84 7.84 0 0 1 30 19.4a7.73 7.73 0 0 1 6.41 3.32l.34.32 5.52 6.1 12.8-3.42a6.25 6.25 0 0 1 1.53-.22 5.94 5.94 0 0 1 5.81 4.5 5.44 5.44 0 0 1-.66 4.51 6.41 6.41 0 0 1-3.68 2.8l-1.21.3 3.77 54.49a2.32 2.32 0 0 1-2.15 2.53zm-5-57L57 92.37a1.34 1.34 0 0 0 1.3 1.23h.1a1.32 1.32 0 0 0 1.2-1.45l-3.8-55.33 2-.5a5.31 5.31 0 0 0 3.09-2.38 4.42 4.42 0 0 0 .55-3.7 4.94 4.94 0 0 0-4.82-3.72 5.14 5.14 0 0 0-1.28.19L42 30.26l-6.28-6.91a6.82 6.82 0 0 0-12.12 1.71v.11l-.38.38-.31 1.56-.67-1a6.49 6.49 0 0 0-3.62-2.79 6.31 6.31 0 0 0-4.79.58 6.24 6.24 0 0 0-3 3.77L8 37.83a6.33 6.33 0 0 0 4.35 7.79 6.42 6.42 0 0 0 4.92-.62l1.05-.63-2.61 10L1.38 85.11a4.28 4.28 0 0 0-.09 3.3 4.65 4.65 0 0 0 2.43 2.43 5.17 5.17 0 0 0 1.61.26 4.54 4.54 0 0 0 4.05-2.51l14.3-30.7 9.7-22 3.12 3.36a5.1 5.1 0 0 0 3.73 1.64 7.59 7.59 0 0 0 1.4-.19z"></path>
  </symbol><symbol  viewBox='0 0 89 65.6' id='icon-village'>
    <title>village</title><path d="M89 28.81l-5.2-12.7a.51.51 0 0 0-.5-.31l-25.9 2c-.17 0 .84.94.84.94L83 16.83l4.75 11.67H63.4c-.27.06-.59 1-.4 1h25.5a.51.51 0 0 0 .42-.22.49.49 0 0 0 .08-.47z"></path><path d="M77.9 29.5H52.5a.5.5 0 0 1-.42-.23.51.51 0 0 1 0-.48L57 18.09a.51.51 0 0 1 .41-.29l25.7-2a.49.49 0 0 1 .44.21.46.46 0 0 1 .06.48l-5.2 12.7a.49.49 0 0 1-.51.31zm-24.62-1h24.28l4.77-11.64-24.6 1.92z"></path><path d="M77.9 39.7L52.47 38a.5.5 0 0 1-.47-.5V29a.5.5 0 0 1 .5-.5h25.4a.5.5 0 0 1 .5.5v10.2a.52.52 0 0 1-.16.37.51.51 0 0 1-.34.13zM53 37l24.4 1.64V29.5H53z"></path><path d="M77.9 39.7a.5.5 0 0 1-.34-.13.51.51 0 0 1-.16-.37V29a.5.5 0 0 1 .5-.5h10.6a.5.5 0 0 1 .5.5v9.2a.5.5 0 0 1-.45.5L78 39.7zm.5-10.2v9.15l9.6-.9V29.5z"></path><path d="M80.1 39.5a.48.48 0 0 1-.34-.13.51.51 0 0 1-.16-.37v-5.9a.5.5 0 0 1 .5-.5h2.2a.5.5 0 0 1 .5.5v5.7a.5.5 0 0 1-.46.5l-2.2.2zm.5-5.9v4.85l1.2-.11V33.6zM74.2 35.6l-2.1-.1a.5.5 0 0 1-.48-.5v-3.6a.5.5 0 0 1 .5-.5h2.1a.5.5 0 0 1 .5.5v3.7a.48.48 0 0 1-.16.36.48.48 0 0 1-.36.14zm-1.6-1.08l1.1.06V31.9h-1.1zM65.2 35.5l-1.9-.2a.5.5 0 0 1-.45-.5v-3.2a.5.5 0 0 1 .5-.5h1.9a.5.5 0 0 1 .5.5V35a.51.51 0 0 1-.16.37.5.5 0 0 1-.39.13zm-1.4-1.15l.9.1V32.1h-.9zM29.74 15a.48.48 0 0 0-.41-.27l-24-1.6a.48.48 0 0 0-.48.29L.05 23.79a.48.48 0 0 0 0 .48.5.5 0 0 0 .42.23H24.1c.18 0 0-1-.27-1H1.28l4.33-9.38 22.85 1.53 1.11.08.16-.27a.5.5 0 0 0 .01-.46z"></path><path d="M33.9 24.5H10.3a.49.49 0 0 1-.45-.29l-4.8-10.4a.48.48 0 0 1 0-.49.52.52 0 0 1 .44-.22l23.8 1.6a.5.5 0 0 1 .41.27l4.6 8.8a.49.49 0 0 1-.44.73zm-23.28-1h22.45L29 15.68 6.31 14.16z"></path><path d="M10.3 32.7a.51.51 0 0 1-.34-.13.52.52 0 0 1-.16-.37V24a.5.5 0 0 1 .5-.5h23.6a.5.5 0 0 1 .5.5v6.8a.5.5 0 0 1-.47.5l-23.6 1.4zm.5-8.2v7.17l22.6-1.34V24.5zm23.1 6.3z"></path><path d="M10.3 32.7l-9.8-.8a.5.5 0 0 1-.5-.5V24a.5.5 0 0 1 .5-.5h9.8a.5.5 0 0 1 .5.5v8.2a.52.52 0 0 1-.16.37.53.53 0 0 1-.34.13zM1 30.94l8.8.72V24.5H1z"></path><path d="M8.2 32.5l-2-.1a.5.5 0 0 1-.48-.5v-4.7a.5.5 0 0 1 .5-.5h2a.5.5 0 0 1 .5.5V32a.48.48 0 0 1-.16.36.48.48 0 0 1-.36.14zm-1.5-1.07l1 .05V27.7h-1zM13.8 29.4a.48.48 0 0 1-.34-.14.48.48 0 0 1-.16-.36v-3a.5.5 0 0 1 .5-.5h1.9a.5.5 0 0 1 .5.5v2.9a.5.5 0 0 1-.47.5l-1.9.1zm1.9-.6zm-1.4-2.4v2h.9v-2zM22.1 29.3a.48.48 0 0 1-.34-.14.48.48 0 0 1-.16-.36v-2.7a.5.5 0 0 1 .5-.5h1.7a.5.5 0 0 1 .5.5v2.6a.5.5 0 0 1-.47.5l-1.7.1zm1.7-.6zm-1.2-2.1v1.67h.7V26.6zM52.4 50.6l-32.7-.3a.49.49 0 0 1-.41-.21.51.51 0 0 1-.06-.46l6-16.7a.51.51 0 0 1 .43-.33L46 30.9a.48.48 0 0 1 .51.34l6.4 18.7a.48.48 0 0 1-.06.45.52.52 0 0 1-.45.21zm-32-1.29l31.29.28-6.04-17.66-19.59 1.64z"></path><path d="M39.5 50.6l-19.8-1.2a.49.49 0 0 1-.39-.23.51.51 0 0 1-.05-.45l6-15.8a.52.52 0 0 1 .43-.32l20.1-1.7a.49.49 0 0 1 .43.19.48.48 0 0 1 .08.47L40 50.26a.49.49 0 0 1-.5.34zm-19.09-2.16l18.74 1.14L45.08 32l-19 1.61z"></path><path d="M39.5 65.6l-19.8-2a.5.5 0 0 1-.45-.5V48.9a.48.48 0 0 1 .16-.36.47.47 0 0 1 .37-.14l19.8 1.2a.51.51 0 0 1 .47.5v15a.51.51 0 0 1-.16.37.55.55 0 0 1-.39.13zm-19.3-2.95l18.8 1.9v-14l-18.8-1.12z"></path><path d="M39.5 65.6a.46.46 0 0 1-.33-.13.48.48 0 0 1-.17-.37v-15a.5.5 0 0 1 .5-.5h12.9a.5.5 0 0 1 .5.5v13.5a.51.51 0 0 1-.44.5l-12.9 1.5zm.5-15v13.94l11.9-1.38V50.6z"></path><path d="M44.5 64.9a.51.51 0 0 1-.34-.13.52.52 0 0 1-.16-.37v-8.6a.5.5 0 0 1 .5-.5h2.6a.5.5 0 0 1 .5.5v8.4a.5.5 0 0 1-.46.5l-2.6.2zm.5-8.6v7.56l1.6-.12V56.3zM32.3 60.2l-2.5-.2a.5.5 0 0 1-.46-.5v-5.2a.5.5 0 0 1 .5-.5h2.5a.5.5 0 0 1 .5.5v5.4a.52.52 0 0 1-.16.37.53.53 0 0 1-.38.13zm-2-1.2l1.5.12V54.8h-1.5zM26 59.5l-2.6-.2a.5.5 0 0 1-.46-.5v-4.9a.5.5 0 0 1 .5-.5H26a.5.5 0 0 1 .5.5V59a.52.52 0 0 1-.16.37.51.51 0 0 1-.34.13zm-2.1-1.16l1.6.12V54.4h-1.6zM55 5.5H35L38.44 1l19.29.75s1.18-.95 1-1L38.22 0a.5.5 0 0 0-.41.19l-4.3 5.5a.51.51 0 0 0-.06.53.5.5 0 0 0 .45.28h21.3c.16 0-.2-1-.2-1z"></path><path d="M63.9 6.5h-20a.52.52 0 0 1-.35-.14l-5.7-5.5a.5.5 0 0 1-.11-.56.47.47 0 0 1 .48-.3L60 .9a.5.5 0 0 1 .36.18l3.9 4.6a.47.47 0 0 1 .07.53.49.49 0 0 1-.43.29zm-19.8-1h18.72l-3.06-3.61-20.27-.84z"></path><path d="M44.1 16.3a.53.53 0 0 1-.34-.13.52.52 0 0 1-.16-.37V6a.5.5 0 0 1 .5-.5h19.8a.5.5 0 0 1 .5.5v8.1a.5.5 0 0 1-.46.5l-19.8 1.7zm.5-9.8v8.76l18.8-1.62V6.5zm19.3 7.6z"></path><path d="M44.1 16.3h-.05l-10.2-1a.51.51 0 0 1-.45-.5V6a.5.5 0 0 1 .5-.5h10.2a.5.5 0 0 1 .5.5v9.8a.51.51 0 0 1-.16.37.5.5 0 0 1-.34.13zm-9.7-2l9.2.9V6.5h-9.2z"></path><path d="M42 16l-2.2-.1a.5.5 0 0 1-.48-.5V9.9a.5.5 0 0 1 .5-.5H42a.5.5 0 0 1 .5.5v5.6a.5.5 0 0 1-.5.5zm-1.7-1.08l1.2.06V10.4h-1.2zM47.7 12.3a.48.48 0 0 1-.34-.14.48.48 0 0 1-.16-.36V8.3a.5.5 0 0 1 .5-.5h2a.5.5 0 0 1 .5.5v3.4a.5.5 0 0 1-.48.5l-2 .1zm2-.6zm-1.5-2.9v2.48h1V8.8zM56.4 12.2a.46.46 0 0 1-.33-.13.48.48 0 0 1-.17-.37V8.5a.5.5 0 0 1 .5-.5h1.8a.5.5 0 0 1 .5.5v3a.5.5 0 0 1-.44.5l-1.8.2zm1.8-.7zM56.9 9v2.14l.8-.09V9z"></path>
  </symbol>
     <symbol  viewBox='0 0 100 30.07' id='icon-uneven-road'> <title>uneven-road</title>
<path d="M.26,13.06A16.69,16.69,0,0,0,13.46,6.6,16.31,16.31,0,0,1,26.78,0,17,17,0,0,1,41.16,8.05v.13A10.22,10.22,0,0,0,50,13.06a10.27,10.27,0,0,0,8.83-4.88H58.7A16.91,16.91,0,0,1,86.41,6.6a17.27,17.27,0,0,0,13.33,6.59H100V30.07H0v-17Z"/>
  </symbol>
     <symbol  viewBox='0 0 72.03 90' id='icon-relax'><title>relax</title><path d="M71.14,18.94a3.68,3.68,0,0,0,.5-4h0a3.27,3.27,0,0,0-2-1.48L53.77,5.17a3.51,3.51,0,0,0-1-.33A8.42,8.42,0,0,0,38.39,3.39a2.63,2.63,0,0,0-2.14.07S18.8,12.4,18.52,12.89c-.93,1.64,0,3.93,2.06,5.11l12.65,8.12a6.48,6.48,0,0,0,1.24.61c-.28,3.19-.81,9.22-1,11.71a70.86,70.86,0,0,1-1.64,10.07s-11.1-2-11.53-2a5.58,5.58,0,0,0-5.86,2.79L.7,73c-1.18,2-.84,4.42.77,5.44h0c1.6,1,3.91.29,5.24-1.64L17.84,60.55,20.24,86c.22,2.33,1.89,4.08,3.78,4s3.36-2,3.32-4.38c0,0-.55-27.89-.6-28.17L42.63,62A5.79,5.79,0,0,0,49.72,58c.07-.3.63-2.23.71-3,0,0,1.84-7.8,2.75-14.55.29-2.15.68-7,.92-10.34a7.38,7.38,0,0,0,1.51-.71l13.78-8.86A9.87,9.87,0,0,0,71.14,18.94ZM52,21a6.44,6.44,0,0,0-3.5-1.49l-6.65-.71a6.48,6.48,0,0,0-3.59.64,6.75,6.75,0,0,0-.9-.55l-9-4.6,8.39-5A8.42,8.42,0,0,0,53,11.48l7.79,5.08Z"/>  
       </symbol>
 <symbol  viewBox='0 0 93.54 92.99' id='icon-mountaineering'><title>mountaineering</title>
 <path d="M61.67,9.35a9,9,0,0,1-9.33,8.8,9.14,9.14,0,0,1-8.55-9A9.17,9.17,0,0,1,52.88,0,9,9,0,0,1,61.67,9.35Z"/><path d="M30.66,5.76a3.56,3.56,0,0,0-5.15.91l-4,6.1a19.49,19.49,0,0,0-2.56,7L16.59,38.85a3.91,3.91,0,0,0,3.3,4.32l8.74,1.26a4.51,4.51,0,0,0,4.81-3.12l6.85-24a6,6,0,0,0-2-5.93Z"/><path d="M92.83,52.22A34.05,34.05,0,0,0,86,49.29a33.08,33.08,0,0,0-7.31-1.42l-.85,0a2,2,0,0,0-.69-.13,2.43,2.43,0,0,0-.55.08,27.35,27.35,0,0,0-5.54.52,26.52,26.52,0,0,0-7.35,2.64l-.06,0a2.61,2.61,0,0,0-.28.17c-1.36,1,2.07,5.84,3.43,4.9a20.85,20.85,0,0,1,8.27-3.4V90.42a2.08,2.08,0,0,0,4.15,0V52.27a30,30,0,0,1,5.88.54,30.68,30.68,0,0,1,6.32,1.92l.08,0a1.43,1.43,0,0,0,1.29-2.55Z"/><path d="M78.38,39.39,49.68,21.55a5.54,5.54,0,0,0-.59-.32,5.68,5.68,0,0,0-7.51,2.65,7.14,7.14,0,0,0-1.47,2.81L35.23,45.53H49.87L52.5,35.37l22.37,10.5a3.69,3.69,0,0,0,3.51-6.48Z"/><path d="M60.68,64.33,50.36,54H35.12A2.86,2.86,0,0,0,35,55.39c0,.84.26,1.34,1.46,2.27l16,12.74V88a5,5,0,0,0,9.92,0V68a5,5,0,0,0-1.45-3.5Z"/><path d="M2.12,74.65a2.12,2.12,0,0,1-.25-4.23C20.54,68.18,30.69,49,30.79,48.8a2.13,2.13,0,0,1,1.89-1.15H49.43l-.72,4.25H33.93C31.29,56.41,20.68,72.45,2.38,74.64Z"/><path d="M39.21,68.52,29.33,89.61A4.58,4.58,0,0,1,21,85.86l9.18-21.4a5,5,0,0,1,9.12,3.91A.94.94,0,0,1,39.21,68.52Z"/>
 </symbol>
  <symbol  viewBox='0 0 64 64' id='icon-cycle-bottom-down'><title>cycle-bottom-down</title>
<path d="M32,64A32,32,0,1,1,64,32,32,32,0,0,1,32,64ZM32,3A29,29,0,1,0,61,32,29,29,0,0,0,32,3Z"/><path d="M23.73,34.69l7.06,8.47a1.27,1.27,0,0,0,.25.27,1.52,1.52,0,0,0,.82.34h.28a1.59,1.59,0,0,0,.83-.34,2,2,0,0,0,.24-.26l7.06-8.48A1.5,1.5,0,1,0,38,32.77l-6,7.16-6-7.16a1.5,1.5,0,0,0-2.3,1.92Z"/><path d="M23.73,22.69l7.06,8.47a1.27,1.27,0,0,0,.25.27,1.52,1.52,0,0,0,.82.34h.28a1.59,1.59,0,0,0,.83-.34,2,2,0,0,0,.24-.26l7.06-8.48A1.5,1.5,0,0,0,38,20.77l-6,7.16-6-7.16a1.5,1.5,0,1,0-2.3,1.92Z"/>
  </symbol>

 <symbol  viewBox='0 0 1077.94 659.07' id='icon-tara-plane'><title>tara-plane</title>
<path d="M1053.14,336.76l-.06,0c-.55-.49-11.77-9.8-77.48-21.48-21-3.74-37.76-9.08-51.15-14.91h0l-.26-.11a7,7,0,0,0-.87-.26h0l-9.7-4.22c-14.66-6.77-39.45-29.11-40-29.48-11.44-8.58-30.5-9.5-55-10.5s-58,1-100.46,2.24h-.07a543.06,543.06,0,0,0-62.43-8.88.31.31,0,0,1-.23-.14l-21-30.9a.31.31,0,0,1,.18-.48l8.78-2.37a.33.33,0,0,0,.23-.29l.51-8.58a.29.29,0,0,1,.21-.29,226.81,226.81,0,0,0,31.94-12.9c15.33-7.67,5.66-9.67-4.67-14.67-10-4.83-24.33-8.42-25.28-8.65a.31.31,0,0,1-.1-.05l-5.13-3.53a.29.29,0,0,1-.13-.3c.9-7.14-2.71-8.82-6.33-11.45l-.07,0c-16-6.38-31.72-.47-32.89,0a.26.26,0,0,1-.15,0l-11.13-1.63-.43-.26L503.81,25.69C498,17.12,488.52,1,478.19.26c-24.07-1.77-70.4,6.17-111,7.82A11.84,11.84,0,0,0,356.46,23.7c26.27,77.43,66.42,172.66,58.9,171.58a.35.35,0,0,0-.28.08l-12.67,12a.33.33,0,0,0-.08.34l22.13,56.41a.31.31,0,0,1-.29.43c-27.65.56-61,1.23-65.32,1.23a53.28,53.28,0,0,0-11.49,1h0l-24.44,4h-.09c-2.66-.4-119.66-18-137.71-21-17.46-2.87-18.44-11.24-18.49-12l0-.1L131.13,163.3a.22.22,0,0,1,0-.1c-.06-.72-1-9.11-12-12.45-11.5-3.5-41.5,0-51,0-9.29,0-11.88,8.6-12,9a.06.06,0,0,0,0,0l-16,108.65s-2.17,20.5-17.83,33.5c-15.17,12.59,11.4,16.74,13.08,17a.3.3,0,0,1,.15.07c.32.28,1.84,1.6,4.17,3.59a.32.32,0,0,1,.07.4L3.8,383.54a11.28,11.28,0,0,0,8.43,17l63.52,7.19a11.3,11.3,0,0,0,10.06-4.14l36-44.75a.34.34,0,0,1,.28-.12,20.56,20.56,0,0,1,3.55.55h0l68.75,12.31h.13l17.87-4.47h.12c3.31.6,142.42,25.8,156.26,27h.05c12-1.29,32.06-1,56-1.14a.32.32,0,0,1,.3.43l-22.77,58a.33.33,0,0,0,.08.34l12.67,12a.38.38,0,0,0,.28.07c7.52-1.09-32.63,94.15-58.9,171.59A11.84,11.84,0,0,0,367.22,651c40.57,1.65,86.9,9.59,111,7.82,10.33-.76,19.8-16.87,25.62-25.43l96.35-141.92a.36.36,0,0,1,.33-.13c34.78,7.89,75.15-.62,75.48-.69h0l16.41-4.43a.33.33,0,0,0,.23-.29l.51-8.58a.29.29,0,0,1,.21-.29,226.81,226.81,0,0,0,31.94-12.9c15.33-7.67,5.66-9.67-4.67-14.67-10-4.83-24.33-8.42-25.28-8.65a.31.31,0,0,1-.1,0l-5.13-3.53a.29.29,0,0,1-.13-.3c.9-7.14-2.71-8.82-6.33-11.45l-.07,0c-16-6.38-31.72-.47-32.89,0a.26.26,0,0,1-.15,0l-4.56-.67a.32.32,0,0,1-.22-.49L663,399a.27.27,0,0,1,.18-.13c40.7-11.16,52.06-10.17,52.46-10.13h0c1.83,0,300.46-2.75,303.57-2.75h0c22-2,12.92-.25,39.37-4.24l.07,0C1104.41,364.48,1054.58,337.53,1053.14,336.76ZM383.81,307.2a6.45,6.45,0,0,1-6.43,6.43H361.21a6.44,6.44,0,0,1-6.42-6.43V294.86a6.44,6.44,0,0,1,6.42-6.43h16.17a6.45,6.45,0,0,1,6.43,6.43Zm57,1a6.45,6.45,0,0,1-6.43,6.43H418.21a6.44,6.44,0,0,1-6.42-6.43V295.86a6.44,6.44,0,0,1,6.42-6.43h16.17a6.45,6.45,0,0,1,6.43,6.43Zm52-1a6.45,6.45,0,0,1-6.43,6.43H470.21a6.44,6.44,0,0,1-6.42-6.43V294.86a6.44,6.44,0,0,1,6.42-6.43h16.17a6.45,6.45,0,0,1,6.43,6.43Zm48,0a6.45,6.45,0,0,1-6.43,6.43H518.21a6.44,6.44,0,0,1-6.42-6.43V294.86a6.44,6.44,0,0,1,6.42-6.43h16.17a6.45,6.45,0,0,1,6.43,6.43Zm66-1a6.45,6.45,0,0,1-6.43,6.43H584.21a6.44,6.44,0,0,1-6.42-6.43V293.86a6.44,6.44,0,0,1,6.42-6.43h16.17a6.45,6.45,0,0,1,6.43,6.43Zm41,0a6.45,6.45,0,0,1-6.43,6.43H625.21a6.44,6.44,0,0,1-6.42-6.43V293.86a6.44,6.44,0,0,1,6.42-6.43h16.17a6.45,6.45,0,0,1,6.43,6.43Zm67-3a6.45,6.45,0,0,1-6.43,6.43H692.21a6.44,6.44,0,0,1-6.42-6.43V290.86a6.44,6.44,0,0,1,6.42-6.43h16.17a6.45,6.45,0,0,1,6.43,6.43Zm50,0a6.45,6.45,0,0,1-6.43,6.43H742.21a6.44,6.44,0,0,1-6.42-6.43V290.86a6.44,6.44,0,0,1,6.42-6.43h16.17a6.45,6.45,0,0,1,6.43,6.43Zm37,0a6.45,6.45,0,0,1-6.43,6.43H779.21a6.44,6.44,0,0,1-6.42-6.43V290.86a6.44,6.44,0,0,1,6.42-6.43h16.17a6.45,6.45,0,0,1,6.43,6.43Zm72,10.55c-20.33-.17-24.5,1.16-25-8.84s-.83-25.66-.83-25.66-.14-4.95,5.86-6.79c4.29-1.31,12.85-3.18,17.65-4.2.18,0,.29.12.42.24a7.32,7.32,0,0,1,.83.84,122.22,122.22,0,0,0,39.64,29.13l3.86,1.68a.32.32,0,0,1,0,.59,28.81,28.81,0,0,0-5.08,2.34C902.1,308.25,894.1,313.91,873.77,313.75Z"/><path d="M35.85,269.91c.73-4,10.74-72.88,11.59-78.66l-37.7,4.31a11,11,0,0,0-8.19,16.49Z"/>
  </symbol>

   <symbol  viewBox='0 0 86 86' id='icon-menu'><title>menu</title>
<path d="M43,0A43,43,0,1,0,86,43,43.06,43.06,0,0,0,43,0ZM64.6,61H21.4a3,3,0,0,1,0-6H64.6a3,3,0,0,1,0,6Zm0-15H21.4a3,3,0,0,1,0-6H64.6a3,3,0,0,1,0,6Zm0-15H21.4a3,3,0,0,1,0-6H64.6a3,3,0,0,1,0,6Z"/>
   </symbol>

  </svg>